<?xml version="1.0" standalone="no"?>
<!DOCTYPE svg PUBLIC "-//W3C//DTD SVG 20010904//EN"
 "http://www.w3.org/TR/2001/REC-SVG-20010904/DTD/svg10.dtd">
<svg version="1.0" xmlns="http://www.w3.org/2000/svg"
 width="700.000000pt" height="600.000000pt" viewBox="0 0 700.000000 600.000000"
 preserveAspectRatio="xMidYMid meet">

<g transform="translate(0.000000,600.000000) scale(0.100000,-0.100000)"
fill="#000000" stroke="none">
<path d="M0 3000 l0 -3000 3500 0 3500 0 0 3000 0 3000 -3500 0 -3500 0 0
-3000z m3468 2413 c59 -4 82 -10 82 -19 0 -11 -26 -13 -137 -8 -150 6 -167 9
-158 24 7 11 92 13 213 3z m472 -3 c0 -5 9 -18 20 -28 l21 -19 -42 -122 c-22
-67 -39 -125 -36 -128 3 -3 61 33 129 79 153 105 145 101 151 84 3 -8 -40 -44
-124 -102 -78 -54 -129 -96 -129 -106 0 -13 27 -25 111 -52 104 -32 114 -33
135 -19 21 13 24 23 24 82 0 101 11 171 26 171 10 0 12 -25 7 -120 -8 -166
-15 -160 184 -160 84 0 153 -4 153 -9 0 -16 -43 -21 -177 -21 -88 0 -133 -4
-133 -11 0 -6 35 -43 78 -84 62 -59 75 -76 64 -86 -10 -11 -26 0 -87 61 -88
87 -82 95 -88 -127 l-3 -151 40 34 c112 95 126 105 137 98 8 -5 -12 -30 -62
-77 -41 -38 -67 -67 -59 -64 52 16 371 70 376 64 16 -16 -18 -26 -206 -62
-107 -20 -198 -39 -202 -41 -5 -3 29 -49 75 -102 115 -136 110 -129 93 -135
-9 -4 -46 32 -106 103 -54 63 -97 107 -105 104 -7 -3 -53 -58 -103 -123 -117
-153 -116 -156 47 -147 64 3 144 9 179 12 51 5 62 4 62 -9 0 -16 -41 -22 -248
-33 -67 -4 -125 -10 -127 -15 -3 -4 11 -35 31 -69 28 -49 33 -64 24 -73 -8 -8
-14 -8 -17 -2 -20 49 -72 120 -88 120 -14 0 -54 -57 -146 -205 -71 -113 -134
-205 -141 -205 -7 0 -12 6 -10 13 1 7 58 102 126 212 69 110 119 200 113 200
-7 0 -60 -7 -118 -17 l-106 -16 -12 -34 c-7 -19 -24 -39 -38 -46 l-26 -11 6
-138 c4 -107 2 -138 -7 -138 -15 0 -26 90 -26 206 0 108 -16 106 -129 -22 -51
-57 -99 -104 -107 -104 -23 0 -17 10 83 124 65 73 91 110 87 121 -5 11 -14 15
-28 11 -11 -2 -50 -8 -84 -12 -50 -5 -69 -12 -89 -33 -23 -25 -24 -30 -18
-108 6 -70 4 -83 -8 -83 -12 0 -17 19 -22 83 -10 113 -14 115 -148 81 -56 -14
-105 -29 -109 -32 -4 -4 39 -35 95 -69 132 -80 144 -89 132 -101 -7 -7 -49 13
-124 59 -62 39 -115 68 -118 66 -2 -3 14 -67 36 -144 46 -157 46 -153 27 -153
-8 0 -28 51 -56 145 -52 175 -58 178 -126 75 -26 -38 -51 -70 -55 -70 -21 0
-14 22 26 83 25 36 42 72 39 80 -3 9 -27 17 -66 21 -72 7 -268 8 -268 1 0 -3
29 -42 65 -87 58 -73 69 -98 46 -98 -5 0 -35 34 -67 75 -43 55 -60 71 -63 58
-4 -18 19 -475 24 -481 2 -2 55 77 116 171 4 5 14 7 24 4 13 -6 5 -23 -49
-101 -36 -52 -66 -100 -66 -108 0 -9 36 -22 111 -39 l111 -26 8 23 c5 12 13
25 18 28 6 3 -4 44 -24 97 -37 100 -40 119 -21 119 7 0 27 -44 46 -98 32 -91
37 -99 67 -108 32 -11 34 -10 84 53 28 34 55 63 60 63 24 0 14 -22 -36 -85
-34 -42 -54 -77 -52 -89 3 -17 28 -27 158 -62 108 -30 158 -40 167 -32 9 7
-11 41 -82 135 -85 113 -101 143 -76 143 4 0 48 -54 97 -120 l89 -120 47 0 47
0 60 113 c75 140 87 158 96 136 3 -9 -23 -67 -65 -143 -44 -79 -69 -135 -65
-146 5 -16 12 -16 118 6 133 27 147 28 147 10 0 -10 -35 -20 -124 -37 -106
-19 -125 -25 -130 -42 -3 -11 -3 -24 0 -29 3 -5 50 -42 105 -84 86 -65 111
-94 80 -94 -5 0 -53 34 -106 75 -54 41 -101 75 -104 75 -3 0 -16 -3 -28 -6
-22 -6 -23 -11 -23 -116 0 -83 -3 -109 -12 -106 -9 3 -14 37 -16 111 -4 144
-3 144 -202 36 -104 -56 -154 -79 -162 -71 -11 11 -1 17 182 117 58 31 109 60
113 64 4 4 4 18 -1 31 -7 20 -29 29 -148 61 -76 21 -146 39 -154 38 -8 0 -25
-8 -37 -18 -21 -18 -21 -19 -7 -132 17 -139 17 -129 -1 -129 -8 0 -15 4 -15 8
0 11 -19 168 -26 208 -3 23 -11 34 -29 38 -13 3 -26 15 -30 26 -3 10 -14 21
-23 24 -45 13 -195 46 -198 43 -2 -1 64 -81 146 -176 134 -156 158 -191 131
-191 -5 0 -77 81 -162 179 -85 99 -155 179 -156 178 0 -1 -6 -53 -12 -116 -10
-99 -10 -116 4 -131 8 -9 15 -21 15 -27 0 -6 66 -28 146 -49 126 -34 169 -53
153 -69 -3 -2 -67 14 -144 35 -77 22 -144 39 -150 40 -30 0 -33 -15 -20 -95 7
-46 9 -84 4 -89 -14 -15 -19 -4 -33 78 -9 52 -20 83 -34 96 -11 10 -22 23 -23
29 -4 9 -318 85 -325 78 -2 -1 80 -67 181 -146 160 -124 209 -171 178 -171 -8
0 -344 258 -371 284 -10 9 -10 17 0 39 7 15 16 27 19 27 3 0 74 -16 158 -35
173 -40 161 -38 183 -21 13 9 20 40 28 124 6 61 9 116 6 121 -4 5 -90 -29
-192 -76 -135 -62 -189 -82 -197 -74 -6 6 -9 12 -6 14 2 2 86 41 187 87 100
46 185 86 188 91 2 4 -51 49 -118 100 -151 113 -144 107 -132 119 6 6 54 -23
138 -85 71 -52 131 -93 134 -91 6 7 -20 516 -27 516 -3 -1 -57 -64 -120 -140
-99 -122 -141 -161 -141 -132 0 4 47 66 105 136 58 70 105 129 105 131 0 7
-375 -194 -378 -204 -2 -6 22 -23 52 -38 31 -15 56 -33 56 -40 0 -19 -13 -16
-74 14 -31 15 -59 24 -62 20 -4 -4 -1 -104 6 -223 10 -162 10 -218 2 -226 -7
-7 -12 -8 -12 -4 0 5 -7 3 -15 -4 -9 -7 -17 -11 -19 -9 -2 2 -43 71 -92 152
-54 93 -90 143 -94 135 -4 -7 -12 -80 -19 -161 -14 -183 -15 -181 100 -178 66
2 79 0 79 -13 0 -13 -14 -16 -79 -16 -44 0 -82 -4 -85 -9 -3 -5 37 -63 89
-129 71 -92 91 -123 81 -131 -9 -8 -35 20 -105 110 -51 66 -98 118 -104 116
-15 -5 -88 -207 -82 -227 4 -14 29 -20 131 -31 87 -9 128 -17 131 -26 3 -8 4
-15 2 -17 -2 -1 -61 5 -131 14 -71 8 -128 14 -128 12 0 -2 36 -47 79 -101 76
-94 81 -98 119 -98 35 0 42 4 68 43 16 24 32 44 36 44 20 0 16 -25 -13 -66
-37 -54 -43 -54 101 1 51 20 89 29 95 24 14 -14 -1 -23 -112 -64 -75 -27 -103
-42 -103 -54 0 -9 -5 -22 -11 -28 -9 -9 4 -57 50 -185 65 -185 68 -198 49
-198 -8 0 -38 73 -73 173 -74 213 -77 214 -152 77 -87 -161 -83 -154 -95 -142
-8 8 8 45 56 133 36 68 63 126 58 130 -4 4 -48 -8 -98 -28 -84 -32 -92 -38
-98 -65 -4 -22 1 -47 19 -86 29 -63 30 -72 11 -72 -8 0 -26 29 -41 64 -37 88
-52 90 -179 31 -54 -25 -99 -44 -100 -43 -1 2 -8 11 -15 20 -11 15 -2 36 70
160 98 170 87 154 101 140 8 -8 -9 -45 -66 -142 -43 -73 -75 -134 -73 -136 10
-10 177 81 177 96 0 9 5 21 10 26 7 7 4 31 -10 75 -24 77 -24 79 -6 79 9 0 22
-26 35 -69 27 -90 43 -95 160 -48 46 19 80 36 75 39 -5 3 -61 22 -124 43 -136
45 -131 42 -124 59 4 11 33 5 135 -29 72 -24 129 -40 127 -34 -9 27 -163 209
-177 209 -10 0 -31 -24 -50 -54 -21 -36 -38 -53 -47 -49 -19 7 -19 6 21 66 19
28 35 61 35 72 0 13 -21 34 -60 61 -42 29 -56 44 -50 54 6 10 21 4 65 -28 32
-22 63 -38 71 -35 14 5 14 4 58 128 45 124 42 130 -85 179 -55 22 -99 43 -99
47 0 21 28 17 115 -20 l95 -40 -33 52 c-96 150 -143 217 -153 217 -6 0 -18
-25 -28 -55 -10 -33 -23 -55 -32 -55 -18 0 -17 14 4 70 25 64 10 91 -63 114
-35 11 -55 23 -55 32 0 11 6 13 23 8 90 -29 105 -32 116 -21 7 7 9 58 4 162
-4 108 -3 154 5 159 16 9 20 -17 26 -173 5 -110 9 -136 23 -146 10 -7 22 -11
28 -9 5 1 43 12 83 24 99 29 98 37 -30 191 -56 67 -97 124 -90 127 19 6 22 3
124 -120 54 -65 103 -118 108 -118 6 0 10 10 10 23 0 12 7 94 15 182 8 88 15
179 15 202 0 67 -22 65 -137 -11 -54 -37 -104 -66 -111 -66 -30 0 -1 28 94 91
90 60 99 69 99 97 0 30 -5 34 -129 92 -166 79 -162 82 -137 -103 14 -108 15
-137 5 -137 -16 0 -20 15 -34 130 -21 183 -24 185 -118 101 -46 -41 -70 -57
-77 -50 -7 7 12 31 59 74 48 43 65 65 56 70 -21 13 -200 19 -200 7 0 -5 11
-34 25 -64 28 -59 31 -78 13 -78 -7 1 -27 31 -44 68 l-30 67 -57 -80 c-31 -44
-57 -83 -57 -88 0 -4 10 -5 23 -3 12 3 49 7 82 11 58 5 60 4 73 -22 12 -26 10
-30 -55 -95 -44 -45 -71 -64 -77 -58 -7 7 3 24 30 53 22 23 50 55 64 70 l24
28 -59 -6 c-33 -4 -70 -8 -83 -11 -15 -3 -25 1 -29 13 -4 10 -11 21 -16 24 -5
4 13 40 40 80 27 41 52 79 56 85 3 6 -30 3 -84 -9 -84 -18 -134 -17 -113 2 5
4 50 16 99 26 105 21 125 34 125 84 0 73 13 141 26 141 10 0 12 -18 7 -84 -5
-65 -3 -88 8 -99 15 -14 201 -32 213 -20 4 4 -39 53 -96 110 -69 70 -99 106
-92 113 7 7 44 -22 115 -89 57 -54 109 -96 116 -94 7 3 14 42 18 99 5 64 11
94 19 91 7 -3 10 -34 8 -93 -3 -84 -1 -91 21 -112 l24 -23 104 16 c57 9 112
18 121 21 13 4 -17 31 -105 96 -67 50 -123 92 -125 93 -1 1 1 16 4 33 l7 32
163 0 c138 0 164 -2 164 -15 0 -12 -27 -15 -162 -17 l-162 -3 124 -92 c68 -51
131 -93 141 -93 11 0 32 23 54 60 20 33 40 60 45 60 21 0 17 -21 -15 -71 -19
-30 -30 -55 -26 -57 5 -1 74 15 155 38 157 43 180 47 174 28 -3 -7 -79 -33
-169 -58 -90 -24 -170 -51 -176 -60 -7 -8 -11 -26 -8 -40 2 -14 6 -41 9 -61 5
-26 14 -39 32 -48 24 -11 33 -4 169 114 129 112 175 142 175 117 0 -5 -68 -67
-151 -138 -109 -92 -146 -130 -133 -132 11 -1 87 10 171 26 117 22 153 26 157
16 6 -17 5 -17 -176 -50 -122 -22 -158 -32 -158 -44 0 -9 38 -36 90 -65 49
-28 90 -53 90 -57 0 -22 -30 -14 -107 31 -114 65 -123 59 -81 -52 16 -45 42
-115 56 -154 14 -40 29 -73 34 -73 4 0 29 33 54 73 57 88 52 83 65 70 7 -7 -3
-32 -36 -83 l-46 -72 178 92 c98 51 182 97 188 101 5 5 -31 9 -83 9 -75 0 -92
3 -92 15 0 12 19 15 115 15 91 0 115 -3 115 -14 0 -7 6 -19 14 -25 19 -16 56
2 56 26 0 14 18 15 168 10 l168 -5 12 27 c11 26 8 36 -49 137 -58 105 -60 110
-45 134 18 30 28 29 143 -6 56 -17 83 -30 83 -40 0 -10 -6 -14 -17 -10 -10 3
-58 17 -106 31 -49 15 -90 25 -92 23 -2 -1 26 -56 62 -120 45 -81 71 -118 83
-118 10 0 35 26 59 60 23 33 49 60 57 60 20 0 19 -3 -31 -77 -27 -41 -41 -71
-36 -76 11 -11 181 29 208 48 17 13 15 17 -30 63 -39 39 -45 51 -35 60 11 9
22 1 52 -33 58 -69 67 -64 114 73 22 64 39 118 37 120 -2 2 -43 -17 -93 -42
-83 -42 -102 -46 -102 -24 0 4 41 28 90 53 87 44 91 45 115 29 14 -9 25 -17
25 -18 0 -1 -18 -55 -39 -119 -42 -123 -43 -152 -7 -143 11 2 49 8 84 12 66 7
88 20 98 58 4 18 -9 44 -54 107 -56 77 -65 99 -42 99 5 0 36 -38 70 -85 52
-72 66 -85 89 -85 26 0 30 6 60 86 17 47 29 89 26 94 -3 4 -52 11 -110 15 -83
5 -105 10 -105 22 0 12 16 14 109 8 59 -4 111 -3 114 1 4 7 -17 161 -38 277
-3 19 0 27 10 27 17 0 20 -9 40 -155 10 -66 21 -124 25 -128 4 -5 43 26 87 67
45 42 86 76 92 76 25 0 7 -25 -69 -97 -53 -50 -80 -82 -78 -94 2 -10 43 -50
92 -88 124 -97 125 -96 110 101 -11 138 -8 185 12 166 3 -4 11 -75 17 -160 7
-84 16 -152 20 -151 13 3 177 223 177 236 0 7 -37 27 -83 46 -93 39 -105 47
-91 61 6 6 41 -5 97 -29 59 -27 89 -36 94 -28 4 6 8 49 10 94 2 46 4 121 6
168 3 64 0 85 -9 85 -10 0 -152 -164 -186 -214 -5 -8 -11 -7 -19 1 -8 8 12 39
80 125 50 62 87 114 82 116 -5 2 -98 -15 -207 -38 -132 -27 -201 -37 -208 -30
-5 5 -8 12 -5 14 4 4 385 85 407 87 4 0 -42 16 -102 35 -101 32 -110 33 -127
18 -11 -10 -31 -15 -53 -13 -31 3 -42 -3 -86 -46 -41 -40 -52 -47 -62 -36 -11
10 -3 22 41 61 72 66 66 77 -48 85 -70 6 -91 11 -91 22 0 13 15 14 95 8 67 -5
95 -4 95 4 0 6 17 19 37 28 34 17 39 25 74 131 21 62 32 109 26 105 -7 -4 -77
-59 -157 -123 -80 -64 -150 -119 -157 -123 -7 -4 -22 -2 -35 5 -13 7 -24 13
-26 14 -3 1 16 144 24 187 3 15 12 27 20 27 9 0 12 -8 9 -27 -10 -56 -25 -186
-23 -189 2 -1 80 59 173 133 l170 136 -132 -7 c-113 -5 -133 -4 -133 8 0 11
15 16 53 19 114 8 217 7 217 -3z m-810 -13 c0 -10 -53 -21 -187 -41 -104 -15
-191 -31 -196 -35 -4 -4 33 -20 83 -36 53 -17 90 -34 90 -42 0 -19 -19 -16
-116 18 -71 25 -89 28 -99 17 -15 -16 -109 -268 -102 -274 3 -3 75 38 160 90
119 71 159 91 166 82 8 -9 -30 -37 -151 -110 -142 -86 -163 -96 -174 -82 -6 9
-16 16 -23 16 -17 0 -15 10 39 152 34 90 46 136 39 143 -7 7 -65 -4 -182 -34
-95 -25 -180 -46 -189 -49 -12 -3 -18 1 -18 12 0 9 2 16 5 16 3 0 85 21 182
46 144 38 181 51 196 70 20 26 56 31 85 13 13 -8 58 -4 177 14 191 30 215 31
215 14z m1023 -41 c28 -11 34 -21 18 -31 -10 -5 -138 41 -155 56 -4 4 -5 12
-2 18 5 7 24 3 59 -11 29 -11 64 -26 80 -32z m-999 6 c3 -5 -17 -31 -44 -57
-40 -40 -52 -47 -62 -36 -11 10 -3 21 37 57 52 45 60 50 69 36z m411 -9 c0 -6
-49 -50 -108 -98 -75 -62 -111 -85 -118 -78 -8 8 22 38 98 101 101 85 128 101
128 75z m-304 -78 c16 -42 23 -74 18 -79 -13 -15 -23 0 -53 82 -23 65 -24 73
-9 70 11 -2 27 -29 44 -73z m1162 25 c75 -9 90 -9 103 5 27 26 84 11 84 -23 0
-12 27 -27 103 -55 122 -46 135 -53 122 -66 -7 -6 -50 6 -123 34 -92 35 -114
41 -119 29 -3 -8 2 -55 12 -103 16 -83 15 -118 -4 -107 -4 3 -16 50 -26 105
-12 66 -23 101 -31 101 -7 0 -19 9 -27 20 -11 16 -33 23 -103 31 -122 14 -134
17 -134 34 0 10 8 13 28 10 15 -2 67 -9 115 -15z m25 -170 c98 -84 140 -126
133 -133 -7 -7 -16 -6 -28 5 -211 179 -293 251 -293 257 0 17 14 20 29 8 9 -7
80 -69 159 -137z m-2234 63 c9 -22 -205 -240 -224 -228 -8 5 20 40 86 107 l99
99 -85 -36 c-47 -20 -118 -50 -157 -67 -40 -17 -73 -36 -73 -42 0 -6 14 -23
31 -37 42 -34 31 -59 -12 -28 -17 12 -32 19 -35 17 -2 -3 16 -54 41 -113 35
-83 43 -110 33 -116 -14 -9 -30 22 -79 149 -37 97 -50 92 -190 -73 -104 -123
-139 -154 -139 -124 0 6 39 57 87 113 47 55 96 112 107 125 l21 25 -25 -15
c-14 -9 -122 -73 -240 -144 -118 -70 -219 -132 -225 -137 -6 -7 27 -7 93 -3
86 6 102 5 102 -8 0 -11 -22 -16 -101 -22 -55 -4 -102 -5 -104 -3 -2 2 -5 16
-7 32 -3 28 5 34 252 183 160 96 256 159 258 170 8 52 15 65 38 73 19 8 34 6
59 -6 33 -15 34 -15 197 55 89 39 168 70 174 71 7 0 15 -8 18 -17z m947 -3
c91 -21 91 -21 81 -36 -11 -16 -192 25 -185 42 7 18 6 18 104 -6z m-755 -91
c88 -71 123 -104 115 -112 -7 -7 -14 -7 -23 0 -7 5 -58 46 -113 89 -140 112
-128 112 -120 3 3 -52 9 -102 11 -111 3 -11 0 -18 -9 -18 -18 0 -24 22 -32
133 -7 79 -6 89 11 102 11 8 23 15 27 15 4 0 64 -46 133 -101z m574 43 c0 -5
-20 -62 -44 -128 -24 -65 -40 -120 -36 -122 4 -2 85 47 180 108 128 82 176
108 184 100 8 -8 7 -14 -4 -20 -8 -5 -87 -56 -175 -113 -152 -98 -160 -105
-166 -140 -6 -37 -5 -38 88 -113 66 -53 92 -79 84 -87 -12 -12 -4 -16 -114 72
-43 35 -80 61 -83 59 -2 -3 5 -44 15 -92 17 -79 18 -87 3 -84 -12 2 -22 28
-36 95 -12 60 -24 94 -34 98 -11 4 -45 -23 -104 -82 -78 -78 -103 -113 -80
-113 13 0 186 -31 205 -36 9 -3 17 -12 17 -20 0 -10 -6 -13 -17 -10 -32 10
-214 38 -218 34 -2 -2 16 -37 40 -78 46 -79 53 -100 33 -100 -7 0 -33 36 -58
80 -26 47 -52 80 -61 80 -8 0 -58 -49 -109 -110 -52 -60 -98 -110 -102 -110
-27 0 -7 34 77 130 110 125 113 119 -50 95 -125 -18 -125 -18 -125 0 0 8 4 15
9 15 30 0 247 33 253 39 4 3 -44 51 -107 105 -63 54 -115 102 -115 107 0 26
29 8 131 -81 63 -54 115 -97 118 -95 2 2 -2 63 -9 135 -9 96 -10 134 -2 142
16 16 19 4 33 -149 7 -73 16 -133 20 -133 15 0 177 184 172 196 -2 7 -49 29
-104 50 -54 20 -99 41 -99 45 0 21 26 17 106 -16 86 -34 88 -35 108 -16 12 10
31 22 42 25 17 5 31 33 64 126 26 75 48 120 56 120 8 0 14 -4 14 -8z m482 -20
c60 -13 75 -20 69 -31 -7 -11 -23 -10 -91 6 -46 10 -85 24 -88 31 -5 16 17 15
110 -6z m1728 -101 c85 -40 157 -74 159 -77 3 -2 0 -9 -5 -14 -7 -7 -68 16
-185 71 -96 45 -189 88 -207 95 l-33 14 46 -82 c25 -46 82 -151 127 -234 53
-98 88 -151 97 -150 9 1 45 46 80 101 75 117 88 133 100 120 5 -6 -21 -55 -65
-124 -43 -67 -70 -119 -65 -124 5 -5 75 -2 167 7 193 20 227 20 222 4 -3 -9
-65 -19 -193 -31 -104 -9 -191 -20 -194 -23 -3 -4 39 -48 93 -100 79 -75 102
-92 113 -82 8 6 33 12 57 12 l44 1 46 93 c25 50 50 92 54 92 23 0 18 -21 -28
-107 -49 -94 -49 -95 -30 -116 11 -11 22 -29 26 -39 4 -12 12 -17 27 -13 12 2
63 11 112 20 50 8 100 18 112 20 45 10 32 38 -66 137 -67 69 -92 101 -85 108
8 8 40 -16 109 -82 91 -86 99 -92 135 -89 56 4 84 -27 78 -84 -5 -42 -4 -44
108 -175 102 -119 121 -150 95 -150 -5 0 -59 60 -122 134 -102 121 -115 133
-138 126 -22 -5 -29 -18 -49 -83 -15 -50 -28 -77 -38 -77 -19 0 -18 4 11 89
23 70 24 74 7 97 -11 16 -24 22 -37 20 -11 -3 -63 -12 -115 -21 -135 -22 -137
-23 -143 -45 -4 -16 13 -31 99 -86 92 -58 117 -84 82 -84 -6 0 -54 29 -107 64
l-97 63 -28 -22 -27 -22 7 -142 c6 -124 9 -143 26 -152 22 -12 18 -14 136 74
69 53 96 67 104 59 7 -7 10 -13 7 -15 -2 -2 -48 -37 -101 -77 -82 -61 -98 -77
-98 -100 0 -26 5 -28 115 -60 71 -21 115 -39 115 -47 0 -18 -6 -17 -126 18
l-106 31 -21 -21 -21 -21 20 -105 c13 -65 17 -108 11 -112 -15 -9 -23 12 -42
116 -17 94 -18 97 -46 99 -27 2 -49 -21 -196 -207 -2 -3 -8 0 -15 7 -8 8 12
39 75 119 56 69 83 111 77 117 -6 6 -10 18 -10 27 0 14 -19 18 -112 28 -140
16 -158 20 -158 37 0 10 8 13 23 10 72 -16 240 -27 250 -17 12 12 20 0 -112
159 -72 88 -91 116 -80 123 9 6 19 2 29 -10 162 -203 195 -239 212 -230 15 8
18 23 17 92 -1 45 -4 109 -8 142 -5 54 -8 60 -31 63 -14 2 -35 13 -48 25 l-23
21 -64 -32 c-57 -28 -65 -30 -65 -14 0 12 19 27 55 45 51 25 55 29 55 63 0 19
4 44 10 54 8 16 -5 32 -87 109 -53 50 -99 89 -101 86 -4 -4 11 -168 25 -272 4
-35 2 -43 -11 -43 -9 0 -16 2 -16 4 0 35 -33 303 -38 308 -4 3 -51 -48 -106
-114 -68 -83 -102 -116 -109 -109 -7 7 -6 16 4 28 16 20 146 180 165 203 24
29 -1 40 -121 55 -66 8 -121 15 -122 15 -2 0 -3 7 -3 15 0 8 1 15 3 15 1 0 57
-7 122 -15 66 -8 123 -15 128 -15 20 0 -3 50 -113 252 -66 120 -120 221 -120
224 0 3 8 16 17 28 l18 24 50 -23 c27 -12 120 -55 205 -94z m-347 95 c4 -9
-25 -35 -82 -75 -80 -55 -101 -63 -101 -40 0 6 167 129 176 129 1 0 4 -6 7
-14z m-1395 -107 c63 -61 92 -95 88 -105 -4 -12 -33 10 -111 83 -58 54 -105
101 -105 106 0 25 47 -6 128 -84z m1432 73 c0 -10 -16 -87 -35 -171 -19 -83
-35 -154 -35 -157 0 -2 -7 -4 -15 -4 -8 0 -15 1 -15 3 0 7 71 322 75 335 7 19
25 14 25 -6z m-1585 -39 c-8 -27 -38 -128 -66 -225 -34 -118 -56 -178 -65
-178 -8 0 -14 3 -14 7 0 10 121 427 127 436 2 4 10 7 18 7 12 0 12 -7 0 -47z
m313 -51 c9 -40 3 -60 -17 -48 -11 7 -23 84 -15 97 9 16 20 -1 32 -49z m-1091
-57 c2 -6 -30 -21 -72 -33 -87 -26 -95 -26 -95 -8 0 8 27 21 68 34 72 22 93
23 99 7z m-409 -21 c59 -12 82 -21 82 -32 0 -11 -7 -13 -30 -8 -17 3 -59 11
-95 18 -41 7 -65 16 -65 25 0 17 8 16 108 -3z m2485 0 c7 -8 -91 -154 -104
-154 -22 0 -14 23 32 89 49 69 59 78 72 65z m129 -151 c2 -9 -2 -18 -8 -20 -6
-2 -27 33 -47 79 -28 62 -34 84 -25 90 9 5 22 -13 45 -63 18 -39 34 -77 35
-86z m-2752 57 c0 -60 -12 -80 -24 -37 -12 44 -7 97 9 97 12 0 15 -13 15 -60z
m3578 -37 c72 -69 100 -102 94 -111 -6 -9 -38 15 -115 89 -94 88 -116 119 -88
119 4 0 53 -44 109 -97z m-3331 11 c2 -8 -138 -114 -151 -114 -3 0 -6 7 -6 15
0 16 129 116 144 112 6 -2 11 -7 13 -13z m58 -101 c-8 -103 -10 -113 -28 -113
-10 0 -11 15 -6 73 4 39 8 84 8 100 1 17 6 27 17 27 13 0 14 -12 9 -87z m1258
74 c7 -18 -334 -172 -344 -155 -4 7 -7 13 -6 14 4 5 332 153 338 154 4 0 9 -6
12 -13z m268 -39 c62 -39 87 -68 58 -68 -9 0 -128 69 -148 86 -4 4 9 24 16 24
3 0 36 -19 74 -42z m-219 -19 c-7 -30 -148 -249 -159 -249 -7 0 -13 4 -13 10
0 20 154 260 164 257 6 -3 10 -11 8 -18z m1008 -13 c39 -9 56 -18 59 -31 2
-12 -2 -16 -10 -13 -8 3 -40 11 -71 18 -36 8 -58 18 -58 27 0 16 9 16 80 -1z
m-2461 -102 c34 -15 61 -33 61 -40 0 -19 -9 -18 -76 12 -71 32 -68 30 -59 43
8 14 4 15 74 -15z m-1015 -26 c-45 -57 -199 -228 -206 -228 -27 0 -5 34 93
145 73 83 115 123 122 116 6 -6 3 -18 -9 -33z m1973 -5 c5 -13 -101 -38 -117
-28 -21 13 -8 24 43 33 59 11 69 10 74 -5z m181 -53 c66 -42 90 -70 59 -70 -9
0 -128 73 -156 96 -6 5 11 25 18 22 4 -2 40 -23 79 -48z m1437 30 c8 -13 -172
-275 -188 -275 -7 0 -11 6 -9 14 4 19 175 270 184 271 4 0 10 -4 13 -10z m134
-106 c45 -104 47 -114 28 -114 -14 0 -98 190 -90 203 11 18 23 1 62 -89z
m-1936 60 c3 -4 -17 -40 -45 -81 -36 -54 -53 -72 -58 -62 -10 15 -10 13 42 92
38 55 48 64 61 51z m109 -85 c48 -85 58 -114 36 -107 -16 6 -118 180 -111 191
10 17 28 -2 75 -84z m-722 0 c15 -50 18 -75 11 -82 -6 -6 -12 -9 -14 -6 -10
10 -45 144 -41 151 13 20 25 3 44 -63z m408 -101 c-3 -7 -63 -24 -134 -40
-147 -31 -167 -33 -162 -15 3 6 58 24 124 39 134 30 178 34 172 16z m32 -37
c0 -3 -44 -64 -96 -135 -68 -92 -99 -125 -106 -118 -8 8 3 30 39 79 27 37 69
95 94 129 24 34 50 59 57 56 6 -2 12 -7 12 -11z m-1896 2 c3 -4 -20 -34 -52
-67 -88 -90 -88 -91 34 -165 69 -42 101 -68 97 -77 -6 -16 -7 -16 -121 56 -45
27 -82 47 -82 44 0 -4 27 -66 60 -139 63 -138 68 -155 48 -155 -7 0 -42 66
-78 146 -36 80 -70 146 -75 146 -5 0 -27 -34 -50 -76 -22 -41 -46 -76 -52 -76
-21 0 -15 18 26 94 29 51 37 76 31 86 -28 45 4 95 54 86 28 -5 37 0 86 49 56
56 62 60 74 48z m128 -55 c43 -54 23 -73 -22 -21 -19 21 -31 31 -28 23 31 -84
58 -194 49 -203 -6 -6 -12 -9 -14 -6 -2 2 -20 57 -41 122 -36 113 -37 119 -19
132 21 16 29 11 75 -47z m3858 17 c0 -8 -8 -15 -17 -15 -10 -1 -70 -7 -133
-14 -103 -12 -146 -8 -127 10 6 6 185 30 250 33 18 1 27 -4 27 -14z m283 -26
c75 -19 82 -23 73 -37 -5 -9 -180 29 -193 41 -12 13 10 27 30 21 12 -4 53 -15
90 -25z m-2659 -78 c50 -90 55 -103 38 -109 -12 -4 -115 175 -107 188 12 19
20 9 69 -79z m-169 4 c-42 -78 -62 -102 -74 -90 -6 7 7 37 36 88 33 56 49 75
56 68 8 -8 3 -27 -18 -66z m2804 -207 c1 -5 -5 -8 -13 -8 -8 0 -41 52 -76 121
-49 95 -59 123 -49 130 11 6 29 -22 76 -114 34 -67 62 -125 62 -129z m-199
230 c1 -30 -94 -258 -106 -258 -8 0 -14 4 -14 8 0 7 68 187 90 240 10 24 30
30 30 10z m-3504 -85 c55 -49 81 -80 75 -86 -11 -11 -32 4 -121 87 -58 53 -72
76 -49 76 6 0 49 -34 95 -77z m3040 66 c3 -6 -25 -43 -67 -85 -58 -58 -76 -71
-86 -62 -12 9 0 25 59 85 75 76 82 80 94 62z m204 -113 c92 -124 99 -136 77
-136 -16 0 -199 235 -190 244 15 15 33 -2 113 -108z m600 78 c0 -22 -75 -184
-84 -181 -14 6 -12 15 25 114 22 58 35 80 45 76 8 -3 14 -7 14 -9z m-4200 -34
c0 -29 -4 -40 -15 -40 -11 0 -15 11 -15 40 0 29 4 40 15 40 11 0 15 -11 15
-40z m5078 -46 c91 -19 132 -31 132 -40 0 -19 -14 -17 -159 14 -69 15 -126 33
-129 40 -5 17 4 16 156 -14z m-204 -56 c16 -73 23 -203 13 -210 -6 -4 -13 -5
-15 -4 -6 6 -28 226 -23 231 10 11 21 4 25 -17z m-4464 -31 c0 -11 -27 -16
-107 -20 -167 -11 -203 -9 -203 8 0 14 5 15 248 23 46 1 62 -1 62 -11z m4810
-19 c0 -12 -232 -182 -266 -195 -11 -4 -15 -1 -13 11 4 17 245 194 267 195 6
1 12 -5 12 -11z m15 -167 c-46 -161 -46 -161 68 -161 64 0 82 3 93 18 7 9 14
23 14 30 0 7 -25 67 -55 132 -30 65 -55 121 -55 124 0 3 6 6 14 6 7 0 39 -55
72 -125 49 -106 61 -125 81 -125 28 0 63 -36 63 -66 0 -12 -9 -33 -20 -47
l-20 -26 26 -170 c15 -94 24 -174 20 -178 -15 -15 -25 21 -50 176 -23 151 -30
181 -39 170 -2 -2 -23 -50 -46 -106 -26 -61 -49 -103 -57 -103 -20 0 -19 7 31
119 58 134 55 141 -67 141 -84 0 -88 -1 -93 -23 -4 -16 8 -57 38 -125 40 -90
46 -125 19 -108 -5 3 -28 50 -52 105 -24 56 -49 101 -56 101 -8 0 -40 -45 -71
-100 -32 -54 -64 -99 -70 -100 -22 0 -15 19 42 115 75 127 72 139 -41 191 -60
28 -82 43 -76 52 7 10 26 4 86 -23 84 -38 121 -39 136 -1 5 11 23 71 41 131
35 125 38 130 51 117 6 -6 -3 -55 -27 -141z m-4773 105 c-129 -170 -162 -205
-164 -172 0 4 32 50 71 102 50 65 76 91 86 87 10 -3 12 -10 7 -17z m3081 -3
c86 -5 107 -9 107 -21 0 -13 -14 -14 -92 -8 -50 3 -133 6 -185 6 -76 0 -93 3
-93 15 0 17 79 20 263 8z m467 -8 c0 -12 -16 -15 -82 -15 -46 0 -93 -3 -105
-6 -17 -5 -23 -2 -23 9 0 19 23 24 128 26 67 1 82 -2 82 -14z m-4316 -45 c48
-22 86 -45 84 -51 -5 -16 -13 -14 -118 32 -55 24 -100 50 -100 58 0 18 27 10
134 -39z m240 32 c2 -4 -11 -24 -29 -44 -23 -25 -36 -33 -44 -25 -7 7 -2 20
17 43 27 32 46 41 56 26z m195 -71 c54 -67 65 -91 42 -91 -15 0 -132 150 -125
161 10 16 19 8 83 -70z m2876 40 c-6 -5 -77 -39 -159 -75 -112 -50 -152 -64
-160 -55 -7 7 -7 13 -1 16 6 2 78 35 160 72 88 41 154 65 160 60 5 -6 5 -12 0
-18z m-3556 -169 c-75 -226 -68 -207 -80 -195 -7 7 6 63 45 184 31 96 58 180
61 186 2 7 11 10 19 7 11 -4 3 -40 -45 -182z m184 5 c58 -126 86 -176 97 -174
10 1 23 33 41 102 17 69 30 101 41 103 13 3 12 -12 -10 -102 l-26 -105 24 -19
c17 -14 30 -17 45 -12 198 81 296 116 301 108 10 -15 -2 -21 -156 -82 -80 -32
-148 -61 -151 -64 -4 -4 -9 -23 -13 -43 -6 -35 -3 -40 65 -112 96 -104 80
-123 -20 -23 -76 75 -78 76 -115 69 -36 -8 -39 -12 -72 -93 -19 -46 -30 -88
-26 -92 5 -5 66 1 138 12 155 24 144 23 144 5 0 -9 12 -21 26 -27 l26 -12 -4
-258 c-3 -197 -1 -259 9 -262 6 -3 60 47 119 110 99 106 134 133 134 101 0 -7
-52 -64 -115 -127 -92 -92 -115 -120 -113 -139 2 -19 26 -39 110 -90 123 -76
126 -79 105 -86 -9 -4 -61 22 -128 63 -63 39 -115 69 -117 67 -2 -1 4 -33 13
-69 18 -82 19 -109 3 -104 -7 3 -20 40 -30 82 -9 43 -21 83 -27 89 -9 9 -46 0
-146 -34 -103 -34 -136 -42 -140 -32 -2 8 5 17 18 22 12 4 65 23 117 41 52 18
99 36 103 40 5 4 -35 22 -87 41 -53 18 -96 37 -96 41 0 20 28 16 106 -12 47
-18 88 -29 92 -26 5 6 -24 65 -100 203 -17 31 -20 45 -12 53 9 9 28 -18 75
-105 l64 -118 7 38 c5 21 7 133 6 248 l-3 209 -70 -101 c-63 -90 -95 -121 -95
-91 0 6 34 59 75 117 42 58 74 108 72 110 -4 3 -153 -17 -244 -32 -18 -3 -33
-12 -33 -19 0 -8 20 -49 44 -92 41 -71 48 -94 27 -94 -4 0 -29 38 -56 85 -42
72 -53 85 -75 85 -21 -1 -235 -108 -220 -111 3 0 79 -18 170 -38 l164 -38 1
-28 c0 -27 -4 -30 -115 -67 -125 -42 -140 -44 -140 -25 0 8 49 29 121 52 l121
40 -73 16 c-292 66 -266 57 -267 89 -1 27 7 33 109 87 60 32 109 64 109 72 0
8 -45 67 -100 132 -55 65 -100 123 -100 129 0 27 33 -2 125 -110 54 -63 102
-115 108 -115 5 0 25 40 43 88 l34 88 -20 21 c-11 12 -20 27 -20 34 0 8 -39
14 -125 19 -88 5 -125 11 -122 19 3 8 40 10 123 8 l119 -4 19 35 18 35 -80
173 c-75 161 -86 195 -60 187 5 -2 46 -83 91 -181z m4040 151 c2 -7 -53 -69
-124 -138 -120 -117 -128 -127 -123 -156 5 -29 13 -34 91 -65 77 -31 105 -51
90 -65 -3 -3 -47 12 -98 34 -89 38 -93 39 -112 22 -19 -18 -19 -20 2 -143 25
-148 24 -137 7 -137 -10 0 -18 22 -26 73 -29 177 -33 190 -62 199 -24 8 -37 1
-117 -59 -80 -59 -91 -71 -91 -98 0 -27 6 -32 58 -55 152 -65 191 -86 183 -98
-6 -10 -39 1 -131 43 -93 41 -126 52 -132 43 -11 -18 -12 -13 37 -136 25 -62
43 -118 39 -123 -10 -17 -21 0 -72 124 -27 64 -51 115 -54 112 -3 -3 -16 -1
-29 4 -22 8 -33 -1 -119 -90 -68 -71 -99 -97 -108 -91 -10 7 12 35 82 109 76
79 94 104 89 121 -4 17 -13 22 -37 22 -71 0 -136 13 -136 26 0 11 16 13 84 8
46 -4 86 -3 88 2 3 5 -62 67 -144 138 -102 88 -146 132 -139 139 11 11 21 4
201 -151 96 -82 106 -89 131 -80 25 8 29 17 39 81 54 322 56 332 74 335 13 3
16 -2 12 -20 -10 -40 -66 -373 -66 -386 0 -32 35 -18 123 46 84 63 94 73 90
96 -3 15 2 37 11 51 15 24 14 28 -34 118 -52 98 -58 117 -37 117 7 0 33 -41
57 -91 25 -50 49 -94 55 -98 5 -5 25 -11 43 -14 32 -6 39 -1 160 118 70 68
130 125 134 125 3 0 8 -6 11 -12z m362 2 c6 -9 -225 -343 -246 -356 -5 -3 -13
-3 -18 1 -10 5 237 364 251 365 4 0 10 -4 13 -10z m147 -130 c26 -63 46 -121
43 -129 -4 -9 -9 -11 -15 -5 -8 8 -110 242 -110 252 0 2 7 2 17 0 10 -2 34
-45 65 -118z m-446 23 c-3 -42 -6 -111 -6 -155 0 -63 -3 -78 -15 -78 -17 0
-19 50 -8 213 5 77 9 97 21 97 13 0 14 -12 8 -77z m-1256 -18 c0 -21 -5 -20
-79 21 -78 43 -75 40 -66 53 9 15 145 -55 145 -74z m-255 48 c0 -5 -26 -34
-58 -63 -41 -38 -61 -50 -69 -42 -7 7 6 26 48 66 55 52 79 63 79 39z m-2202
-39 c68 -22 117 -44 117 -51 0 -18 2 -18 -142 27 -101 32 -126 44 -121 56 3 8
11 13 17 11 6 -2 64 -22 129 -43z m1890 -41 c42 -15 77 -33 77 -40 0 -22 -7
-20 -153 36 -16 6 -25 15 -22 21 9 14 10 14 98 -17z m2941 9 c3 -5 -29 -40
-72 -78 -107 -96 -111 -99 -123 -87 -6 6 21 37 81 91 89 81 104 90 114 74z
m-2379 -23 c4 -6 5 -12 2 -15 -4 -4 -313 -43 -344 -44 -23 0 -14 30 10 31 12
0 85 9 162 19 77 10 145 18 152 19 6 0 15 -4 18 -10z m2465 -135 c16 -106 20
-148 12 -156 -15 -15 -16 -9 -41 147 -25 154 -25 155 -7 155 10 0 20 -39 36
-146z m-3753 82 c-2 -6 -28 -84 -58 -173 -32 -97 -59 -163 -66 -163 -20 0 -17
13 43 192 43 131 59 166 70 161 8 -3 13 -11 11 -17z m1494 -133 c41 -91 47
-117 27 -111 -19 7 -98 192 -85 200 15 9 14 11 58 -89z m-2488 49 c-1 -5 -38
-75 -83 -155 -44 -80 -83 -152 -86 -161 -4 -11 39 0 164 44 140 48 171 56 176
44 3 -8 0 -17 -7 -19 -6 -3 -84 -29 -171 -58 l-159 -53 162 -49 c104 -31 161
-53 161 -62 0 -7 -4 -13 -8 -13 -7 0 -209 59 -297 87 -11 3 23 -41 75 -98 135
-148 135 -148 123 -160 -7 -7 -47 31 -127 120 -111 123 -116 130 -105 155 10
22 9 29 -5 45 -17 19 -14 26 74 186 52 94 97 164 103 162 7 -3 11 -9 10 -15z
m165 -60 c24 -40 40 -76 37 -82 -4 -6 -10 -8 -15 -5 -16 10 -99 153 -92 159
12 13 28 -3 70 -72z m4130 31 c19 -3 32 -11 32 -20 0 -12 -8 -14 -32 -10 -18
4 -66 9 -105 13 -55 5 -73 10 -73 22 0 12 12 13 73 8 39 -4 87 -9 105 -13z
m-304 -8 c4 -10 -3 -17 -22 -21 -51 -12 -307 -75 -324 -80 -12 -4 -18 0 -18
10 0 9 12 19 28 23 15 3 92 23 172 44 174 45 157 42 164 24z m41 -45 c3 -5
-22 -63 -55 -129 -60 -121 -60 -121 -44 -154 16 -33 18 -34 123 -50 149 -23
147 -28 71 168 -47 122 -58 160 -48 166 10 6 28 -31 73 -146 33 -85 65 -159
71 -165 6 -6 30 36 73 130 35 77 67 140 72 140 21 0 14 -25 -42 -147 -58 -128
-59 -133 -47 -171 11 -35 23 -47 102 -95 83 -51 120 -62 111 -34 -2 7 -20 98
-40 202 -20 105 -39 200 -42 213 -4 15 -1 22 10 22 17 0 18 -5 69 -267 22
-116 37 -173 46 -173 7 0 47 54 90 120 68 106 102 142 102 110 0 -6 -34 -63
-75 -126 -68 -105 -87 -144 -68 -144 3 0 44 7 91 16 81 15 119 13 108 -5 -3
-5 -27 -12 -53 -16 -174 -25 -181 -37 -98 -157 61 -89 66 -98 48 -105 -6 -2
-39 37 -73 86 -33 50 -66 91 -73 91 -8 0 -20 -30 -31 -77 -25 -111 -26 -113
-42 -113 -18 0 -18 -4 6 92 12 44 20 84 18 88 -2 5 -61 -34 -132 -85 -118 -86
-146 -100 -146 -75 0 4 58 49 128 99 124 88 128 92 124 124 -3 29 -14 39 -96
89 -60 37 -100 55 -112 52 -18 -5 -22 -23 -38 -147 -23 -186 -26 -197 -43
-197 -12 0 -14 7 -10 28 14 69 40 313 34 318 -4 4 -90 -48 -193 -115 -129 -84
-190 -119 -197 -112 -6 6 -9 12 -6 15 2 2 85 57 184 121 99 65 182 119 184
121 10 9 -13 16 -116 32 l-109 18 -18 -23 c-10 -14 -28 -23 -44 -23 -25 0 -30
-8 -71 -109 -31 -78 -48 -108 -58 -104 -16 6 -14 13 37 132 21 50 34 93 29 97
-14 8 -319 -155 -319 -171 0 -7 26 -28 58 -46 71 -40 68 -37 55 -50 -8 -8 -27
-3 -68 21 -85 49 -105 40 -178 -80 -31 -52 -53 -96 -48 -98 5 -2 67 15 137 37
91 27 131 36 136 28 10 -16 1 -20 -144 -62 -150 -45 -153 -48 -106 -159 35
-82 35 -83 68 -91 23 -5 34 5 118 120 51 69 97 125 102 125 25 0 11 -26 -79
-145 -53 -72 -95 -137 -93 -146 3 -17 47 -29 107 -29 35 0 60 -14 52 -27 -4
-6 -34 -6 -77 -1 -69 8 -72 8 -92 -17 -11 -14 -28 -25 -39 -25 -15 0 -27 -15
-46 -60 -20 -46 -29 -57 -39 -49 -10 8 -8 21 11 63 22 50 22 53 5 64 -15 9
-39 4 -125 -28 -58 -22 -107 -40 -110 -40 -3 0 -5 6 -5 14 0 8 30 25 73 42 39
14 88 34 107 42 l35 15 -40 7 c-22 4 -106 18 -187 30 -106 17 -148 27 -148 36
0 18 5 18 208 -15 94 -15 172 -24 172 -20 0 4 7 14 15 23 14 14 12 23 -17 92
-17 42 -39 78 -47 81 -9 2 -23 8 -30 12 -10 5 -62 -18 -147 -66 -137 -75 -154
-82 -154 -60 0 6 60 45 133 84 l132 73 -197 0 c-169 0 -198 2 -198 15 0 13 29
15 198 15 109 0 202 3 205 6 4 4 -36 52 -89 107 -70 74 -92 103 -84 111 9 8
36 -14 104 -86 120 -128 123 -128 199 -1 32 53 55 103 53 110 -4 10 -44 13
-171 13 -140 0 -165 2 -165 15 0 13 25 15 165 15 91 0 165 3 165 7 0 4 -28 36
-62 70 -49 49 -60 65 -50 75 10 10 26 -1 75 -50 34 -34 67 -62 73 -62 7 0 21
69 34 165 17 120 27 165 37 165 17 0 17 2 -9 -178 -12 -83 -18 -155 -14 -160
4 -4 78 30 163 74 142 74 156 84 159 110 3 26 -6 35 -97 98 -88 62 -120 96
-89 96 6 0 51 -30 101 -66 102 -73 114 -80 124 -65 3 6 17 11 31 11 21 0 32
16 86 125 35 69 66 125 70 125 4 0 9 -4 13 -10z m561 -56 c78 -42 103 -59 94
-68 -15 -15 -220 92 -213 111 3 7 7 13 9 13 3 0 52 -25 110 -56z m-5426 -31
c0 -21 -17 -216 -26 -290 -4 -39 -10 -53 -21 -53 -12 0 -14 8 -9 43 3 23 11
104 17 180 9 103 15 137 25 137 8 0 14 -8 14 -17z m4284 -51 c5 -8 -32 -43
-136 -130 -16 -13 -33 -20 -40 -16 -8 5 15 32 68 80 76 71 97 83 108 66z
m1596 -27 c0 -12 -16 -15 -85 -15 -69 0 -85 3 -85 15 0 12 16 15 85 15 69 0
85 -3 85 -15z m-2493 -82 c-4 -38 -7 -83 -7 -100 0 -24 -5 -33 -16 -33 -15 0
-16 11 -9 92 7 98 10 108 27 108 7 0 9 -22 5 -67z m-2307 -18 c0 -60 -3 -75
-15 -75 -12 0 -15 15 -15 75 0 60 3 75 15 75 12 0 15 -15 15 -75z m4988 38
c20 -15 39 -29 41 -30 3 -2 0 -8 -6 -14 -13 -13 -93 36 -93 57 0 21 17 17 58
-13z m-148 -3 c0 -17 -111 -165 -123 -165 -20 0 -9 24 46 101 47 66 77 91 77
64z m-247 -72 c8 -24 18 -51 22 -62 6 -14 4 -17 -10 -15 -19 4 -59 94 -50 110
12 18 23 8 38 -33z m-3983 -113 c0 -69 -3 -85 -15 -85 -12 0 -15 16 -15 85 0
69 3 85 15 85 12 0 15 -16 15 -85z m4410 63 c0 -12 -231 -108 -259 -108 -37 0
8 30 110 71 120 50 149 57 149 37z m-2090 -30 c-1 -15 -113 -118 -129 -118
-24 0 -8 26 47 76 56 53 82 66 82 42z m2252 -226 c38 -170 42 -202 29 -200
-12 2 -27 51 -59 196 -40 175 -47 242 -23 216 5 -5 29 -100 53 -212z m-82 196
c0 -7 -10 -57 -22 -110 -14 -64 -26 -98 -35 -98 -17 0 -17 -3 9 118 14 67 26
102 35 102 7 0 13 -6 13 -12z m-2430 -115 c0 -18 -17 -16 -165 15 -96 20 -131
32 -133 44 -3 13 18 11 148 -16 97 -20 150 -35 150 -43z m-2765 -2 c-30 -39
-42 -48 -52 -40 -10 9 -4 21 28 61 28 33 45 46 52 39 7 -7 -3 -27 -28 -60z
m1760 29 c81 -16 150 -30 152 -30 1 0 3 -7 3 -15 0 -19 10 -20 -166 17 -115
23 -151 34 -147 45 3 7 6 13 8 13 1 0 69 -13 150 -30z m-1622 -79 c31 -114 32
-121 14 -121 -8 0 -23 40 -40 103 -31 117 -31 117 -14 117 9 0 23 -36 40 -99z
m1367 87 c0 -7 -52 -42 -115 -78 -63 -36 -115 -68 -115 -71 0 -3 52 -21 116
-41 153 -48 157 -46 152 75 -2 60 1 87 8 87 16 0 24 -35 24 -110 0 -103 8
-104 186 -19 81 39 153 68 162 64 23 -9 9 -18 -141 -88 -76 -36 -140 -67 -142
-69 -3 -2 68 -10 158 -17 89 -7 179 -15 201 -18 38 -6 39 -6 34 23 -3 16 -17
54 -31 86 -21 46 -23 57 -11 62 10 4 23 -14 44 -61 17 -36 30 -70 30 -74 0
-29 48 2 120 77 57 60 87 84 98 79 12 -4 -4 -26 -70 -93 -109 -110 -114 -131
-55 -214 35 -50 45 -58 72 -58 l32 0 34 166 c30 146 46 191 63 173 2 -2 -12
-77 -31 -167 -34 -156 -34 -164 -18 -183 10 -10 22 -19 26 -19 4 0 50 27 100
59 85 55 109 64 109 42 0 -5 -43 -36 -95 -69 -72 -47 -93 -65 -88 -78 5 -14
24 -16 151 -12 102 2 146 0 149 -8 3 -8 -41 -14 -146 -19 -122 -6 -151 -10
-156 -23 -3 -8 -2 -19 2 -22 23 -21 284 -190 293 -190 14 0 26 33 34 95 12 87
17 105 32 105 17 0 17 4 -2 -104 -8 -49 -12 -92 -7 -97 4 -4 36 4 71 18 45 18
66 23 74 15 8 -8 -5 -18 -47 -36 -32 -15 -61 -26 -65 -26 -4 0 -12 -10 -17
-22 -9 -19 -3 -38 34 -111 39 -79 46 -107 24 -107 -4 0 -27 40 -51 90 -34 70
-49 90 -65 90 -30 0 -160 -118 -160 -146 -1 -13 -8 -31 -17 -41 -16 -17 -16
-23 0 -87 15 -60 21 -70 49 -81 30 -13 34 -11 126 50 72 48 98 61 105 52 8 -9
-16 -29 -89 -77 -62 -41 -98 -71 -96 -80 1 -10 28 -20 87 -31 65 -11 86 -19
88 -32 3 -14 -1 -17 -20 -12 -129 30 -156 32 -170 15 -13 -14 -12 -23 10 -73
13 -31 30 -57 36 -57 6 0 40 18 75 41 35 22 70 38 78 35 21 -9 10 -20 -62 -62
-41 -24 -68 -48 -76 -66 -11 -26 -9 -86 8 -207 l6 -45 24 48 c22 43 22 48 8
69 -31 44 -11 93 45 112 27 9 36 21 54 68 15 41 25 54 34 48 10 -6 9 -19 -8
-65 -21 -56 -21 -58 -3 -79 28 -34 35 -37 91 -37 41 0 52 -3 52 -16 0 -14 -9
-16 -64 -12 -61 5 -64 4 -75 -19 -10 -22 -6 -36 34 -110 41 -78 47 -103 26
-103 -4 0 -29 41 -55 90 -58 110 -74 115 -113 35 -23 -47 -30 -54 -50 -49 -13
4 -30 0 -40 -7 -14 -12 -27 -2 -105 80 -66 70 -86 97 -77 105 8 8 34 -14 100
-84 49 -52 89 -88 89 -79 0 47 -23 235 -29 242 -5 5 -37 -3 -71 -17 -73 -30
-80 -31 -80 -12 0 7 26 23 60 36 83 31 87 38 60 105 -32 79 -48 73 -90 -31
-19 -47 -38 -88 -42 -90 -22 -14 -15 29 16 106 33 80 34 86 18 102 -16 17 -23
17 -102 3 -103 -18 -100 -18 -100 -1 0 9 22 18 68 25 109 19 122 22 122 34 0
6 9 20 19 31 19 20 19 24 4 86 -9 36 -19 69 -23 73 -4 5 -52 -41 -106 -101
-88 -99 -114 -120 -114 -92 0 5 41 55 90 112 51 57 88 109 85 116 -3 8 -5 20
-5 27 0 8 -32 24 -74 38 l-74 25 -20 -21 c-14 -16 -21 -43 -26 -97 -12 -137
-18 -170 -32 -170 -16 0 -16 -8 0 145 12 114 12 121 -6 134 -13 9 -18 22 -16
42 2 25 -11 42 -92 124 -77 77 -92 97 -81 107 10 11 30 -5 106 -84 51 -54 98
-98 103 -98 6 0 15 39 22 88 6 48 13 99 16 113 4 20 -1 30 -23 44 -15 10 -33
25 -39 33 -9 13 -21 11 -87 -11 -71 -24 -77 -24 -77 -8 0 14 18 23 75 40 73
22 75 23 75 55 0 17 7 41 15 54 15 20 14 25 -27 82 -23 33 -47 60 -53 60 -6 0
-33 -54 -60 -121 -27 -66 -53 -123 -58 -126 -27 -17 -18 26 29 137 29 68 52
126 50 127 -1 2 -73 -27 -159 -65 -188 -81 -190 -84 -87 -156 39 -27 70 -56
70 -64 0 -19 -19 -11 -93 42 -57 41 -66 44 -106 39 -40 -6 -46 -10 -87 -74
-41 -65 -64 -85 -64 -56 0 6 18 40 40 75 32 50 38 67 30 82 -14 27 -12 62 5
87 14 20 13 26 -4 70 -11 26 -20 44 -20 39 -2 -25 -63 -341 -68 -349 -3 -5 -9
-5 -15 1 -6 6 2 72 22 182 27 150 29 174 17 189 -8 9 -16 23 -19 30 -2 9 -53
30 -124 51 l-119 36 0 32 c0 30 7 36 110 96 113 67 135 75 135 54z m747 -45
c3 -7 -19 -13 -64 -17 -37 -4 -89 -9 -115 -12 -38 -4 -48 -2 -48 10 0 15 31
22 130 29 68 6 93 3 97 -10z m-3208 -44 c34 -55 38 -69 19 -69 -17 0 -81 98
-73 110 11 18 22 10 54 -41z m5921 -5 c77 -39 107 -59 104 -69 -5 -11 -32 -1
-117 42 -129 64 -121 59 -112 72 9 15 6 17 125 -45z m-2451 -80 c33 -52 61
-97 61 -100 0 -2 -7 -4 -15 -4 -17 0 -137 179 -129 192 11 18 24 4 83 -88z
m270 39 c-120 -142 -159 -178 -159 -144 0 5 34 48 76 96 54 61 79 84 87 76 7
-7 6 -16 -4 -28z m1911 27 c0 -25 -91 -190 -105 -190 -8 0 -15 2 -15 5 0 18
97 195 107 195 7 0 13 -5 13 -10z m154 -180 c51 -160 62 -220 35 -193 -8 8
-119 346 -119 363 0 6 6 10 13 10 9 0 35 -67 71 -180z m-4791 124 c68 -39 88
-61 66 -67 -14 -4 -179 95 -173 104 9 16 27 10 107 -37z m-646 14 c-2 -7 -13
-37 -23 -65 -10 -29 -24 -53 -31 -53 -17 0 -16 19 1 61 7 19 16 42 19 52 4 9
14 17 23 17 9 0 14 -6 11 -12z m527 0 c3 -7 7 -102 10 -210 4 -158 2 -198 -8
-198 -9 0 -15 27 -20 92 -10 143 -8 328 4 328 6 0 12 -6 14 -12z m1181 -9 c4
-6 5 -12 2 -15 -12 -12 -203 -52 -211 -43 -14 13 -9 15 94 42 115 30 107 29
115 16z m-308 -17 c7 -5 9 -13 3 -22 -7 -11 -11 -11 -24 -1 -24 20 -6 40 21
23z m-1609 -64 c87 -36 97 -42 88 -57 -4 -6 -35 2 -86 23 l-79 34 21 -52 c59
-149 69 -190 40 -172 -5 3 -28 55 -52 116 -34 89 -40 113 -30 125 16 19 8 20
98 -17z m2132 -202 c61 -126 110 -230 110 -232 0 -1 -6 -4 -14 -7 -10 -4 -44
60 -122 224 -60 126 -111 229 -115 229 -3 0 -32 -65 -65 -145 -32 -80 -61
-145 -65 -145 -20 0 -15 26 27 131 78 193 69 178 103 176 31 -2 34 -7 141
-231z m3933 136 c21 -23 8 -38 -20 -23 -32 17 -85 79 -78 90 7 12 60 -25 98
-67z m-1461 37 c78 -21 118 -36 118 -45 0 -18 7 -19 -136 18 -77 20 -124 37
-124 45 0 18 9 17 142 -18z m1283 2 c-5 -12 -128 -212 -142 -230 -2 -3 -8 0
-15 7 -8 8 2 31 39 89 28 43 62 97 77 121 25 40 55 50 41 13z m-4140 -118 c47
-99 56 -137 26 -119 -4 3 -30 53 -57 111 -26 58 -51 105 -54 105 -4 0 -31
-104 -61 -231 -30 -127 -57 -236 -61 -242 -5 -8 -10 -8 -17 -2 -6 6 11 95 47
247 55 227 58 237 82 241 14 2 28 3 33 3 4 -1 32 -52 62 -113z m2611 -14 c-3
-34 -6 -93 -6 -131 0 -51 -3 -69 -12 -66 -18 6 -21 39 -13 156 6 82 10 102 22
102 13 0 15 -10 9 -61z m949 50 c10 -15 7 -16 -77 -24 -67 -6 -78 -5 -78 8 0
11 12 17 43 20 85 7 106 7 112 -4z m-5200 -61 c-23 -54 -28 -59 -41 -50 -8 5
-4 23 12 61 18 41 27 52 36 43 8 -8 7 -22 -7 -54z m4927 39 c11 -18 3 -20 -81
-12 -63 5 -81 11 -81 22 0 13 12 14 78 8 42 -4 80 -12 84 -18z m525 -71 c72
-41 100 -62 96 -72 -4 -12 -16 -8 -62 17 -133 74 -191 110 -191 118 0 17 14
20 34 8 12 -8 67 -39 123 -71z m-2093 14 c28 -42 31 -56 17 -64 -8 -5 -71 81
-71 97 0 21 31 2 54 -33z m1262 24 c2 -5 -76 -59 -172 -121 -144 -92 -176
-109 -181 -96 -4 9 -2 18 3 20 5 2 81 51 169 108 152 100 176 111 181 89z
m1331 0 c3 -8 -278 -124 -301 -124 -3 0 -6 6 -6 14 0 8 39 29 98 51 53 21 117
46 142 56 47 19 62 19 67 3z m-703 -106 c-16 -145 -16 -148 -1 -148 6 0 72 25
144 55 143 59 153 62 153 42 0 -7 -63 -39 -146 -72 l-145 -59 118 -59 c65 -33
120 -61 122 -63 3 -3 0 -9 -6 -15 -7 -7 -44 6 -121 45 l-112 56 94 -148 c58
-91 89 -150 83 -154 -6 -4 -14 -5 -17 -3 -4 2 -46 68 -95 146 -68 109 -90 137
-95 123 -4 -11 -12 -73 -19 -139 -15 -156 -20 -175 -38 -175 -11 0 -13 7 -9
28 10 50 29 253 24 257 -2 3 -26 -34 -53 -81 -35 -63 -51 -82 -59 -74 -12 12
-12 10 68 153 l39 68 -90 -45 c-103 -51 -117 -74 -77 -123 25 -30 30 -48 15
-57 -5 -3 -21 12 -36 34 -43 61 -65 56 -202 -45 -102 -76 -133 -91 -133 -66 0
4 54 47 119 95 80 58 118 93 114 102 -3 8 -50 35 -104 60 -54 26 -99 53 -99
61 0 20 10 17 114 -33 53 -26 99 -45 101 -42 3 3 -38 83 -90 178 -67 119 -93
176 -86 183 6 6 12 9 15 6 2 -2 45 -79 96 -172 51 -92 94 -166 96 -164 2 2 34
297 34 320 0 4 7 7 16 7 13 0 15 -8 10 -47 -19 -152 -27 -296 -18 -305 13 -13
202 82 202 102 0 9 -36 66 -81 128 -54 75 -79 117 -75 128 8 21 -1 31 99 -109
l85 -117 5 42 c4 24 9 70 12 103 9 86 14 105 28 105 11 0 11 -21 1 -112z
m-564 66 c0 -9 -5 -57 -12 -105 -8 -61 -16 -89 -25 -89 -16 0 -16 10 -1 121 8
61 16 89 25 89 7 0 13 -7 13 -16z m1284 -156 c-39 -147 -43 -175 -33 -200 9
-23 8 -32 -5 -53 -14 -21 -24 -25 -54 -24 -30 1 -71 -17 -209 -94 -108 -59
-175 -91 -179 -85 -9 15 8 27 179 120 82 44 146 82 144 84 -2 3 -44 0 -93 -6
-68 -7 -90 -7 -96 3 -9 14 22 22 135 32 44 4 77 11 77 17 0 6 -45 57 -100 114
-55 56 -100 107 -100 113 0 31 28 10 119 -88 78 -83 106 -108 121 -104 22 6
22 6 71 206 27 110 37 137 50 137 15 0 12 -20 -27 -172z m-5820 -25 c134 -51
138 -53 128 -70 -5 -7 -49 6 -144 44 -76 30 -135 59 -132 64 9 15 22 11 148
-38z m3374 -26 c32 -41 42 -61 35 -68 -8 -8 -26 8 -61 52 -46 57 -57 86 -29
76 5 -1 30 -29 55 -60z m2078 36 c-3 -16 -8 -48 -11 -73 -11 -84 -16 -100 -32
-100 -11 0 -13 7 -9 28 3 15 8 47 11 72 11 84 16 100 32 100 11 0 13 -7 9 -27z
m-3543 -105 c12 -6 16 -13 9 -20 -6 -6 -54 8 -138 42 -138 56 -150 63 -140 79
6 8 202 -65 269 -101z m-1236 61 c112 -33 129 -41 119 -57 -5 -8 -250 58 -263
72 -9 9 9 27 22 22 8 -3 62 -19 122 -37z m-807 -68 c26 -61 49 -101 60 -104 9
-2 58 13 108 34 71 29 92 34 96 23 5 -14 -24 -30 -126 -69 -27 -10 -48 -21
-48 -26 0 -5 36 -31 80 -60 44 -28 80 -55 80 -59 0 -23 -23 -15 -94 30 -46 30
-89 50 -105 50 -37 0 -54 22 -47 57 4 20 -5 53 -34 118 -44 99 -46 105 -26
105 8 0 32 -41 56 -99z m577 82 c6 -16 -98 -56 -111 -42 -7 7 -7 13 -1 16 6 2
28 12 50 22 42 20 57 21 62 4z m1048 -11 c0 -13 -150 -142 -165 -142 -24 0 -2
29 70 93 71 62 95 75 95 49z m2893 -9 c37 -4 52 -10 52 -20 0 -12 -10 -14 -47
-9 -27 3 -96 8 -155 12 -102 6 -118 10 -100 28 7 8 137 2 250 -11z m-3888
-137 c0 -114 3 -145 14 -149 8 -3 73 36 148 89 73 52 137 93 141 91 23 -7 0
-29 -114 -110 -174 -123 -173 -122 -56 -107 97 12 128 34 158 109 33 82 38 91
53 85 11 -4 6 -23 -20 -85 -18 -43 -30 -79 -25 -79 4 0 34 9 66 20 55 19 75
19 75 0 0 -5 -30 -18 -66 -30 -36 -12 -68 -29 -71 -36 -10 -26 -38 -34 -67
-19 -43 23 -171 3 -202 -30 -28 -31 -74 -33 -99 -5 -16 18 -31 20 -122 20 -79
0 -104 3 -101 13 3 8 37 14 104 17 126 6 129 15 44 111 -49 55 -60 73 -51 82
10 9 15 8 25 -6 34 -45 118 -127 127 -122 5 4 9 69 9 146 0 117 2 139 15 139
13 0 15 -23 15 -144z m1150 24 c24 -61 45 -108 47 -106 3 2 18 0 34 -6 26 -9
38 -5 109 37 44 26 84 44 90 40 16 -10 5 -20 -80 -70 -70 -41 -80 -51 -80 -75
0 -15 -7 -33 -14 -40 -13 -10 -11 -23 15 -95 33 -93 34 -105 17 -105 -7 0 -27
39 -44 87 -29 84 -32 88 -67 96 -32 8 -43 4 -104 -32 -76 -45 -83 -47 -83 -27
0 8 34 34 75 58 41 23 73 48 72 53 -2 6 -68 24 -148 41 -104 22 -144 34 -144
45 0 17 -3 17 148 -16 65 -14 127 -25 137 -25 34 0 31 34 -10 132 -44 105 -47
118 -27 118 8 0 32 -46 57 -110z m741 85 c0 -5 -57 -22 -128 -37 -149 -32
-153 -32 -153 -15 0 10 38 22 118 39 122 27 162 30 163 13z m1636 -11 c4 -15
-259 -166 -270 -155 -13 13 -23 6 123 95 120 72 140 81 147 60z m170 -69 c38
-41 74 -75 80 -75 5 0 46 31 89 70 53 46 82 66 89 59 7 -7 -17 -35 -73 -87
-45 -42 -83 -80 -82 -83 0 -3 18 -29 40 -59 36 -49 42 -70 20 -70 -5 0 -23 21
-40 46 -44 63 -66 69 -129 36 -28 -15 -51 -34 -51 -42 0 -10 28 -25 85 -44 47
-16 88 -33 91 -38 14 -23 -14 -20 -98 8 -106 36 -110 33 -80 -56 12 -34 17
-62 11 -65 -16 -11 -25 3 -44 64 -28 92 -44 89 -180 -34 -102 -92 -110 -102
-107 -131 4 -28 11 -35 61 -57 74 -32 102 -27 173 34 54 47 78 59 78 41 0 -5
-26 -34 -58 -65 -43 -40 -56 -59 -50 -70 4 -8 37 -32 73 -53 36 -21 65 -44 65
-51 0 -21 -15 -16 -85 27 -36 22 -74 40 -84 40 -13 0 -25 -17 -42 -60 -13 -33
-29 -60 -36 -60 -18 0 -16 14 8 71 29 67 19 87 -59 121 -79 34 -83 23 -32 -88
37 -80 42 -104 21 -104 -5 0 -27 42 -50 94 -56 122 -64 120 -137 -25 -49 -98
-74 -131 -74 -96 0 6 23 59 50 115 45 95 48 105 34 120 -15 14 -24 14 -108 -6
-106 -26 -116 -27 -116 -9 0 9 36 22 100 37 96 23 100 25 100 51 0 18 10 36
29 52 l29 24 -18 87 c-10 52 -14 89 -8 92 15 9 19 0 34 -73 23 -111 23 -113
42 -113 10 0 22 -4 28 -10 10 -10 217 170 222 194 2 10 -8 17 -30 20 -18 3
-62 10 -98 16 -108 18 -120 21 -120 36 0 9 8 12 28 9 15 -3 69 -12 121 -20
l93 -14 29 29 c28 27 29 32 29 124 0 79 3 96 15 96 12 0 15 -18 15 -99 0 -125
9 -136 78 -98 74 41 74 45 -1 128 -59 66 -72 89 -48 89 5 0 39 -34 78 -75z
m-3135 -1 c70 -23 108 -41 108 -50 0 -8 -1 -14 -3 -14 -3 0 -200 66 -225 75
-13 5 -8 25 6 25 4 0 55 -16 114 -36z m1522 -233 c68 -226 84 -305 57 -275
-15 16 -162 517 -156 532 3 9 9 12 14 6 5 -5 43 -123 85 -263z m1922 238 c-3
-17 -13 -75 -22 -128 -9 -53 -20 -100 -25 -105 -20 -22 -21 9 -5 111 24 145
26 153 43 153 12 0 14 -7 9 -31z m-2036 9 c0 -32 -22 -144 -29 -151 -17 -18
-21 14 -10 87 8 52 16 76 25 76 8 0 14 -6 14 -12z m1067 -34 c24 -18 31 -30
24 -37 -12 -12 -85 39 -76 54 9 13 15 12 52 -17z m-2594 -36 c24 -41 26 -58 7
-58 -9 0 -60 80 -60 93 0 4 6 7 14 7 8 0 25 -19 39 -42z m2507 25 c0 -5 -14
-68 -31 -141 -20 -84 -36 -131 -43 -129 -14 5 -11 28 20 165 18 75 31 112 40
112 8 0 14 -3 14 -7z m-1230 -74 c96 -62 123 -89 90 -89 -7 0 -202 121 -219
136 -4 3 8 24 14 24 2 0 54 -32 115 -71z m-2004 14 c-21 -87 -28 -103 -42
-103 -10 0 -14 6 -10 18 3 9 10 38 17 65 7 30 17 47 26 47 11 0 14 -7 9 -27z
m1769 -12 c-65 -169 -132 -321 -142 -321 -7 0 -13 3 -13 8 0 4 30 82 66 174
49 121 71 165 81 161 8 -3 12 -12 8 -22z m-817 1 c3 -11 -42 -26 -117 -38 -69
-11 -47 17 30 37 70 18 81 19 87 1z m187 -98 c31 -44 36 -57 25 -64 -17 -11
-85 84 -76 106 3 8 7 14 9 14 2 0 21 -25 42 -56z m4030 46 c7 -11 -41 -110
-54 -110 -19 0 -18 16 7 66 26 54 35 63 47 44z m-4170 -10 c4 -6 -7 -34 -23
-63 -24 -42 -28 -56 -19 -75 7 -15 7 -29 0 -45 -8 -18 -6 -32 12 -67 22 -42
23 -44 29 -20 3 14 8 78 12 143 6 109 16 149 30 113 3 -8 1 -77 -4 -153 -6
-76 -8 -140 -6 -142 3 -3 26 16 52 42 26 26 53 47 60 47 24 0 11 -27 -33 -70
-48 -47 -56 -73 -27 -85 9 -3 125 -46 257 -95 132 -49 254 -94 270 -100 24 -9
19 -1 -30 42 -299 267 -351 319 -308 311 7 -2 10 4 7 12 -4 9 0 15 9 15 12 0
247 -86 254 -94 1 -1 -2 -7 -6 -14 -6 -10 -26 -6 -87 19 -104 41 -154 59 -154
54 0 -2 88 -83 196 -181 179 -162 195 -179 189 -203 -4 -14 -8 -28 -11 -30 -2
-2 -104 -6 -226 -10 l-223 -6 90 -34 c100 -38 114 -46 100 -60 -6 -6 -55 8
-125 35 -63 25 -115 46 -117 47 -1 2 0 13 4 25 5 22 8 22 207 22 110 0 211 3
224 7 18 4 -49 32 -259 110 -155 57 -286 100 -291 95 -4 -4 1 -35 12 -67 20
-57 20 -92 1 -81 -5 4 -19 34 -30 69 -18 53 -26 65 -52 74 -31 12 -31 14 -26
59 6 55 -25 134 -53 134 -32 0 -52 25 -54 67 -2 30 -11 51 -39 83 -20 24 -37
47 -37 52 0 22 31 3 68 -41 52 -61 70 -59 109 15 28 55 37 62 48 44z m2343
-45 c-1 -5 -36 -36 -77 -67 -50 -39 -78 -55 -85 -48 -12 12 -11 14 74 79 60
46 95 60 88 36z m1331 -9 c9 -11 1 -24 -41 -65 -29 -28 -58 -51 -65 -51 -28 0
-21 21 17 51 22 18 38 34 36 36 -2 2 -67 -14 -144 -36 -77 -23 -143 -41 -146
-41 -3 0 -6 7 -6 15 0 8 16 19 38 24 20 6 89 26 152 45 133 39 144 41 159 22z
m78 -40 c22 -31 28 -47 21 -54 -13 -13 -83 72 -73 88 11 17 20 11 52 -34z
m-1364 15 c-3 -10 -161 -300 -170 -310 -2 -3 -8 0 -14 6 -14 14 157 326 175
320 6 -3 10 -10 9 -16z m-1290 -56 c1 -5 -95 -49 -213 -97 -169 -68 -216 -83
-218 -71 -2 8 -2 16 0 17 14 11 406 164 416 163 7 -1 14 -6 15 -12z m2942 -6
c10 -15 8 -16 -88 -37 -53 -12 -89 -16 -93 -10 -10 15 2 20 84 39 96 22 90 21
97 8z m-2702 -108 c64 -90 73 -106 58 -115 -12 -8 -143 173 -135 185 11 18 21
8 77 -70z m2156 63 c14 -13 -24 -20 -91 -16 -63 3 -76 7 -71 19 5 12 19 14 82
8 42 -4 78 -9 80 -11z m532 -109 c-53 -99 -59 -117 -54 -154 7 -51 -15 -81
-61 -81 -26 0 -43 -14 -107 -84 -55 -60 -80 -81 -88 -73 -7 7 11 34 66 94 41
46 74 86 71 88 -8 8 -151 -34 -160 -47 -5 -7 -6 -39 -3 -70 5 -47 3 -58 -9
-58 -10 0 -17 16 -21 55 -4 30 -13 60 -21 66 -8 6 -14 16 -14 21 0 16 -44 47
-67 48 -17 0 -32 -17 -64 -72 -67 -118 -70 -121 -81 -110 -8 8 5 38 41 102 29
51 51 93 49 95 -2 2 -23 -1 -48 -5 -66 -13 -90 -12 -90 4 0 10 19 16 61 21 50
6 62 11 71 31 6 13 15 24 20 24 9 0 11 94 2 128 -6 20 -16 10 -81 -78 -41 -55
-79 -97 -85 -94 -14 9 -6 23 72 128 61 83 75 96 93 90 12 -3 23 -7 24 -9 2 -1
6 -36 9 -79 4 -42 11 -79 17 -83 5 -3 49 34 97 82 79 78 90 86 109 76 11 -7
21 -14 21 -16 0 -3 -23 -60 -51 -126 -28 -66 -49 -122 -47 -124 2 -2 32 3 67
12 56 14 65 20 77 49 8 18 18 35 23 39 6 3 -3 35 -20 76 -27 64 -30 89 -10 89
5 0 21 -34 37 -75 42 -109 56 -105 129 34 40 79 61 108 71 104 11 -4 1 -31
-45 -118z m-2871 101 c0 -7 -23 -55 -51 -105 -48 -89 -50 -93 -37 -128 7 -19
17 -37 23 -39 5 -2 66 -7 134 -11 92 -6 126 -12 129 -22 4 -12 -18 -13 -137
-7 -92 5 -141 4 -141 -3 0 -5 -7 -17 -16 -26 -15 -14 -12 -24 27 -116 24 -56
48 -103 54 -104 67 -20 69 -19 152 76 43 50 84 98 91 107 9 12 15 13 24 4 8
-8 -11 -37 -80 -116 -62 -71 -90 -110 -86 -121 7 -18 -10 -23 234 61 102 35
191 64 198 64 6 0 12 -6 12 -13 0 -7 -31 -23 -72 -36 -40 -13 -137 -46 -215
-73 -119 -42 -143 -54 -143 -70 0 -11 -13 -33 -29 -49 -39 -38 -87 -39 -131
-2 l-32 26 -88 -11 c-109 -15 -110 -15 -110 2 0 10 28 17 100 26 98 13 100 14
100 40 0 14 9 36 20 48 l20 21 -45 104 c-39 89 -49 105 -69 105 -20 0 -30 -18
-82 -146 -32 -80 -65 -147 -71 -150 -22 -6 -15 17 44 165 31 79 54 146 50 149
-4 4 -30 -9 -59 -28 -86 -57 -98 -62 -98 -41 0 11 24 33 65 58 55 33 65 44 63
64 -3 20 -21 32 -118 73 -124 54 -136 61 -126 76 4 7 45 -6 106 -33 139 -61
138 -60 165 -35 14 13 37 22 58 23 33 1 37 5 72 71 55 104 76 136 86 136 5 0
9 -6 9 -14z m2594 -1 c-5 -12 -25 -15 -95 -15 -72 0 -89 3 -89 15 0 12 17 15
95 15 80 0 93 -2 89 -15z m-644 -40 c0 -8 -2 -15 -5 -15 -2 0 -27 -9 -55 -20
-43 -17 -50 -18 -50 -4 0 8 19 24 43 34 51 24 67 25 67 5z m-940 -27 c0 -18 3
-50 6 -70 5 -30 3 -38 -8 -38 -16 0 -28 46 -28 108 0 22 5 32 15 32 10 0 15
-10 15 -32z m1119 -75 c7 -27 14 -56 17 -65 3 -12 0 -18 -10 -18 -9 0 -20 20
-30 54 -20 66 -20 76 -2 76 8 0 18 -19 25 -47z m-159 -32 c100 -59 133 -89 93
-85 -24 3 -232 129 -233 142 0 22 24 13 140 -57z m-136 -33 c9 -40 19 -83 22
-95 5 -17 2 -23 -10 -23 -9 0 -18 12 -22 28 -3 15 -12 52 -20 83 -17 71 -17
79 0 79 9 0 20 -25 30 -72z m-2310 -74 c27 -65 36 -98 29 -105 -13 -13 -12
-14 -57 94 -40 96 -42 107 -23 107 6 0 30 -43 51 -96z m1592 -94 c36 -54 45
-73 36 -82 -6 -6 -13 -10 -15 -7 -73 106 -88 132 -83 144 3 8 7 15 10 15 2 0
25 -32 52 -70z m968 41 c3 -5 -23 -21 -59 -35 -76 -30 -75 -30 -75 -12 0 7 21
23 48 34 52 23 78 27 86 13z m-1598 -52 c57 -47 71 -69 43 -69 -6 0 -36 21
-67 47 -32 26 -59 48 -61 50 -4 3 9 23 16 23 3 0 34 -23 69 -51z m1717 -26
c20 -57 21 -63 4 -63 -7 0 -21 21 -30 48 -20 56 -21 62 -4 62 7 0 21 -21 30
-47z m-426 -20 c4 -12 -25 -17 -149 -28 -55 -4 -68 -3 -68 9 0 10 17 16 63 20
34 3 78 8 97 9 45 5 53 3 57 -10z m341 -52 c25 -7 42 -18 42 -26 0 -19 2 -20
-104 12 -97 28 -112 36 -102 51 4 6 27 3 63 -8 32 -10 77 -23 101 -29z m-664
9 c-9 -8 -153 -40 -181 -40 -8 0 -13 6 -11 13 6 15 192 57 197 44 2 -5 -1 -12
-5 -17z m-1917 3 c4 -10 -128 -73 -153 -73 -33 0 -8 23 59 54 73 35 88 38 94
19z m88 -86 c28 -94 30 -107 13 -107 -13 0 -69 169 -61 183 12 20 25 0 48 -76z
m2121 -8 c-36 -40 -66 -81 -66 -90 0 -14 18 -17 130 -24 102 -5 130 -10 130
-21 0 -16 -28 -17 -172 -6 -49 4 -88 4 -88 0 0 -4 -11 -18 -25 -31 -28 -25
-28 -28 0 -194 5 -25 2 -33 -9 -33 -16 0 -17 6 -37 135 -5 38 -11 70 -12 70
-1 0 -16 7 -33 16 -31 16 -33 16 -114 -22 -76 -36 -100 -41 -100 -20 0 5 40
26 88 49 106 48 112 65 35 89 -29 9 -53 20 -53 24 0 19 25 20 67 4 41 -16 46
-16 60 -2 15 14 14 20 -5 66 -26 59 -26 61 -8 61 7 0 24 -24 37 -52 14 -29 29
-54 34 -54 6 -1 19 -4 30 -8 16 -5 36 10 90 64 93 94 111 76 21 -21z m-261 71
c9 -15 -57 -92 -68 -81 -7 7 -1 24 18 51 28 41 39 48 50 30z m459 -75 c30 -80
32 -90 15 -90 -14 0 -72 143 -64 156 12 19 21 7 49 -66z m543 41 c-3 -7 -1
-18 5 -24 5 -5 6 -12 1 -15 -4 -3 -109 -35 -232 -72 -225 -66 -241 -69 -240
-30 0 6 32 32 71 59 54 37 72 45 79 35 5 -9 -6 -23 -38 -46 -25 -18 -48 -34
-50 -36 -2 -2 81 21 185 52 l188 56 -83 3 c-65 2 -83 6 -83 17 0 12 19 15 101
15 82 0 100 -3 96 -14z m-1172 -28 c47 -23 64 -55 23 -42 -44 13 -78 35 -78
49 0 19 1 19 55 -7z m-1827 -74 c116 -50 127 -57 118 -72 -4 -6 -53 10 -124
40 -134 58 -126 53 -117 67 9 15 4 16 123 -35z m1692 39 c0 -4 -14 -44 -31
-89 -23 -61 -35 -81 -46 -77 -8 3 -12 12 -8 22 4 9 18 46 32 84 15 38 31 67
39 67 8 0 14 -3 14 -7z m95 -84 c29 -76 31 -91 9 -90 -10 0 -73 169 -66 176
14 13 27 -7 57 -86z m96 -26 c-26 -64 -48 -83 -44 -40 3 42 41 117 57 111 12
-4 10 -17 -13 -71z m-423 -59 c63 -18 77 -27 68 -42 -4 -7 -35 -1 -84 15 -42
14 -79 27 -81 29 -9 7 13 25 25 20 8 -3 40 -13 72 -22z m312 -48 c0 -7 -14
-16 -31 -20 -52 -10 -79 -7 -79 8 0 11 14 16 48 19 26 2 50 4 55 5 4 1 7 -4 7
-12z m262 -111 c86 -50 111 -75 77 -75 -6 0 -60 30 -121 66 -60 36 -112 64
-113 62 -2 -2 12 -29 31 -61 33 -57 34 -57 14 -77 -19 -19 -20 -19 -147 57
-152 91 -139 81 -126 94 8 8 45 -9 136 -64 l125 -75 -34 58 c-39 67 -39 68
-18 92 16 17 18 17 48 -1 17 -10 75 -44 128 -76z m88 -99 c0 -13 -48 -26 -97
-26 -36 0 -28 28 10 33 69 8 87 7 87 -7z m124 -92 c38 -57 42 -68 32 -89 -10
-22 -15 -23 -75 -18 -53 5 -63 4 -59 -8 3 -8 11 -31 19 -51 7 -21 18 -38 23
-38 6 0 27 19 47 43 26 29 41 39 48 32 8 -8 1 -22 -21 -50 -23 -27 -32 -47
-30 -66 3 -21 -3 -32 -22 -44 -24 -16 -28 -16 -51 -1 -25 16 -35 59 -16 70 12
8 -30 106 -45 106 -7 0 -16 10 -19 23 -4 12 -28 43 -53 69 -36 38 -44 50 -34
60 10 10 22 2 60 -35 26 -26 50 -47 54 -47 3 0 11 21 18 46 12 41 33 65 46 52
3 -3 -4 -28 -15 -55 -11 -27 -16 -54 -13 -60 4 -5 33 -13 65 -16 l58 -6 -17
27 c-9 15 -28 43 -41 62 -12 19 -23 40 -23 47 0 28 22 10 64 -53z"/>
<path d="M1648 4370 c-59 -10 -113 -20 -120 -23 -7 -3 45 -33 116 -67 115 -54
133 -60 153 -49 21 11 22 17 17 68 -7 55 -26 92 -48 90 -6 -1 -59 -9 -118 -19z"/>
<path d="M3689 4323 c-53 -138 -50 -126 -33 -159 l16 -30 119 19 c95 16 119
23 119 36 -1 16 -180 161 -200 161 -6 0 -15 -12 -21 -27z"/>
<path d="M1836 3864 c-11 -134 -14 -220 -8 -226 5 -5 32 7 69 33 86 59 88 76
22 255 -28 77 -54 142 -58 147 -4 4 -15 -90 -25 -209z"/>
<path d="M1920 3649 c-36 -26 -57 -48 -61 -67 -4 -15 -8 -32 -10 -37 -4 -12
162 -297 169 -290 10 10 -21 424 -32 428 -7 3 -36 -13 -66 -34z"/>
<path d="M1657 3526 c-104 -33 -104 -35 2 -194 50 -75 91 -130 91 -122 0 8 7
80 14 160 12 129 12 147 -2 163 -18 21 -19 21 -105 -7z"/>
<path d="M2971 2616 c-19 -23 20 -102 56 -110 15 -4 36 -15 45 -23 16 -14 29
-10 152 42 75 32 133 61 131 65 -2 4 -80 12 -172 19 -92 7 -175 15 -184 17 -9
2 -21 -2 -28 -10z"/>
<path d="M3680 2248 c-12 -10 -30 -18 -40 -18 -21 0 -24 -11 -40 -139 -10 -77
-10 -86 7 -102 17 -17 25 -17 202 21 101 22 185 40 187 40 23 0 -20 34 -145
117 -147 97 -149 98 -171 81z"/>
<path d="M3788 1977 c-75 -17 -135 -34 -132 -38 2 -4 26 -15 54 -24 39 -13 54
-14 71 -5 12 7 34 10 49 8 23 -3 39 5 82 43 63 58 63 58 -124 16z"/>
<path d="M5707 1622 c-47 -48 -77 -86 -77 -99 0 -19 37 -53 58 -53 8 0 104
221 99 227 -2 1 -38 -32 -80 -75z"/>
</g>
</svg>
