<svg xmlns="http://www.w3.org/2000/svg" xmlns:xlink="http://www.w3.org/1999/xlink" viewBox="0 0 1200 821.22663" height="821.227" width="1200"><defs><linearGradient id="b"><stop offset="0" stop-color="#5b3078"/><stop offset="1" stop-color="#733c9a"/></linearGradient><linearGradient id="a"><stop offset="0" stop-color="#5b3078"/><stop offset="1" stop-color="#773aa4"/></linearGradient><marker id="ad" orient="auto" overflow="visible"><path d="M.98 0a1 1 0 1 1-2 0 1 1 0 0 1 2 0z" fill="#5b3078" fill-rule="evenodd" stroke="#5b3078" stroke-width=".2pt"/></marker><marker id="ac" orient="auto" overflow="visible"><path d="M.98 0a1 1 0 1 1-2 0 1 1 0 0 1 2 0z" fill="#5b3078" fill-rule="evenodd" stroke="#5b3078" stroke-width=".2pt"/></marker><marker id="Z" orient="auto" overflow="visible"><path d="M.98 0a1 1 0 1 1-2 0 1 1 0 0 1 2 0z" fill="#5b3078" fill-rule="evenodd" stroke="#5b3078" stroke-width=".2pt"/></marker><marker id="aa" orient="auto" overflow="visible"><path d="M.98 0a1 1 0 1 1-2 0 1 1 0 0 1 2 0z" fill="#5b3078" fill-rule="evenodd" stroke="#5b3078" stroke-width=".2pt"/></marker><marker id="ab" orient="auto" overflow="visible"><path d="M.98 0a1 1 0 1 1-2 0 1 1 0 0 1 2 0z" fill="#5b3078" fill-rule="evenodd" stroke="#5b3078" stroke-width=".2pt"/></marker><marker id="V" orient="auto" overflow="visible"><path d="M.98 0a1 1 0 1 1-2 0 1 1 0 0 1 2 0z" fill="#5b3078" fill-rule="evenodd" stroke="#5b3078" stroke-width=".2pt"/></marker><marker id="W" orient="auto" overflow="visible"><path d="M.98 0a1 1 0 1 1-2 0 1 1 0 0 1 2 0z" fill="#5b3078" fill-rule="evenodd" stroke="#5b3078" stroke-width=".2pt"/></marker><marker id="X" orient="auto" overflow="visible"><path d="M.98 0a1 1 0 1 1-2 0 1 1 0 0 1 2 0z" fill="#5b3078" fill-rule="evenodd" stroke="#5b3078" stroke-width=".2pt"/></marker><marker id="Y" orient="auto" overflow="visible"><path d="M.98 0a1 1 0 1 1-2 0 1 1 0 0 1 2 0z" fill="#5b3078" fill-rule="evenodd" stroke="#5b3078" stroke-width=".2pt"/></marker><radialGradient gradientUnits="userSpaceOnUse" gradientTransform="matrix(1 0 0 .7088 0 240.288)" r="628.293" fy="825.149" fx="694.436" cy="825.149" cx="694.436" id="c" xlink:href="#b"/><radialGradient r="628.293" fy="592.215" fx="642.298" cy="592.215" cx="642.298" gradientTransform="matrix(1.204 0 0 .78832 -131.029 193.191)" gradientUnits="userSpaceOnUse" id="S" xlink:href="#b"/><radialGradient r="628.293" fy="825.149" fx="694.436" cy="825.149" cx="694.436" gradientTransform="matrix(1 0 0 .7088 0 240.288)" gradientUnits="userSpaceOnUse" id="f" xlink:href="#b"/><radialGradient r="628.293" fy="825.149" fx="694.436" cy="825.149" cx="694.436" gradientTransform="matrix(1 0 0 .7088 0 240.288)" gradientUnits="userSpaceOnUse" id="g" xlink:href="#b"/><radialGradient r="628.293" fy="825.149" fx="694.436" cy="825.149" cx="694.436" gradientTransform="matrix(1 0 0 .7088 0 240.288)" gradientUnits="userSpaceOnUse" id="i" xlink:href="#b"/><radialGradient r="628.293" fy="825.149" fx="694.436" cy="825.149" cx="694.436" gradientTransform="matrix(1 0 0 .7088 0 240.288)" gradientUnits="userSpaceOnUse" id="h" xlink:href="#b"/><radialGradient r="628.293" fy="825.149" fx="694.436" cy="825.149" cx="694.436" gradientTransform="matrix(1 0 0 .7088 0 240.288)" gradientUnits="userSpaceOnUse" id="e" xlink:href="#b"/><radialGradient r="628.293" fy="825.149" fx="694.436" cy="825.149" cx="694.436" gradientTransform="matrix(1 0 0 .7088 0 240.288)" gradientUnits="userSpaceOnUse" id="j" xlink:href="#b"/><radialGradient r="628.293" fy="825.149" fx="694.436" cy="825.149" cx="694.436" gradientTransform="matrix(1 0 0 .7088 0 240.288)" gradientUnits="userSpaceOnUse" id="k" xlink:href="#b"/><radialGradient r="628.293" fy="825.149" fx="694.436" cy="825.149" cx="694.436" gradientTransform="matrix(1 0 0 .7088 0 240.288)" gradientUnits="userSpaceOnUse" id="d" xlink:href="#b"/><radialGradient r="628.293" fy="825.149" fx="694.436" cy="825.149" cx="694.436" gradientTransform="matrix(1 0 0 .7088 0 240.288)" gradientUnits="userSpaceOnUse" id="l" xlink:href="#b"/><radialGradient r="628.293" fy="825.149" fx="694.436" cy="825.149" cx="694.436" gradientTransform="matrix(1 0 0 .7088 0 240.288)" gradientUnits="userSpaceOnUse" id="n" xlink:href="#b"/><radialGradient r="628.293" fy="825.149" fx="694.436" cy="825.149" cx="694.436" gradientTransform="matrix(1 0 0 .7088 0 240.288)" gradientUnits="userSpaceOnUse" id="p" xlink:href="#b"/><radialGradient r="628.293" fy="825.149" fx="694.436" cy="825.149" cx="694.436" gradientTransform="matrix(1 0 0 .7088 0 240.288)" gradientUnits="userSpaceOnUse" id="o" xlink:href="#b"/><radialGradient r="628.293" fy="825.149" fx="694.436" cy="825.149" cx="694.436" gradientTransform="matrix(1 0 0 .7088 0 240.288)" gradientUnits="userSpaceOnUse" id="m" xlink:href="#b"/><radialGradient r="628.293" fy="825.149" fx="694.436" cy="825.149" cx="694.436" gradientTransform="matrix(1 0 0 .7088 0 240.288)" gradientUnits="userSpaceOnUse" id="r" xlink:href="#b"/><radialGradient r="628.293" fy="825.149" fx="694.436" cy="825.149" cx="694.436" gradientTransform="matrix(1 0 0 .7088 0 240.288)" gradientUnits="userSpaceOnUse" id="t" xlink:href="#b"/><radialGradient r="628.293" fy="825.149" fx="694.436" cy="825.149" cx="694.436" gradientTransform="matrix(1 0 0 .7088 0 240.288)" gradientUnits="userSpaceOnUse" id="s" xlink:href="#b"/><radialGradient r="628.293" fy="825.149" fx="694.436" cy="825.149" cx="694.436" gradientTransform="matrix(1 0 0 .7088 0 240.288)" gradientUnits="userSpaceOnUse" id="q" xlink:href="#b"/><radialGradient r="628.293" fy="825.149" fx="694.436" cy="825.149" cx="694.436" gradientTransform="matrix(1 0 0 .7088 0 240.288)" gradientUnits="userSpaceOnUse" id="z" xlink:href="#b"/><radialGradient r="628.293" fy="825.149" fx="694.436" cy="825.149" cx="694.436" gradientTransform="matrix(1 0 0 .7088 0 240.288)" gradientUnits="userSpaceOnUse" id="A" xlink:href="#b"/><radialGradient r="628.293" fy="825.149" fx="694.436" cy="825.149" cx="694.436" gradientTransform="matrix(1 0 0 .7088 0 240.288)" gradientUnits="userSpaceOnUse" id="B" xlink:href="#b"/><radialGradient r="628.293" fy="825.149" fx="694.436" cy="825.149" cx="694.436" gradientTransform="matrix(1 0 0 .7088 0 240.288)" gradientUnits="userSpaceOnUse" id="y" xlink:href="#b"/><radialGradient r="628.293" fy="825.149" fx="694.436" cy="825.149" cx="694.436" gradientTransform="matrix(1 0 0 .7088 0 240.288)" gradientUnits="userSpaceOnUse" id="C" xlink:href="#b"/><radialGradient r="628.293" fy="825.149" fx="694.436" cy="825.149" cx="694.436" gradientTransform="matrix(1 0 0 .7088 0 240.288)" gradientUnits="userSpaceOnUse" id="x" xlink:href="#b"/><radialGradient r="628.293" fy="825.149" fx="694.436" cy="825.149" cx="694.436" gradientTransform="matrix(1 0 0 .7088 0 240.288)" gradientUnits="userSpaceOnUse" id="w" xlink:href="#b"/><radialGradient r="628.293" fy="825.149" fx="694.436" cy="825.149" cx="694.436" gradientTransform="matrix(1 0 0 .7088 0 240.288)" gradientUnits="userSpaceOnUse" id="v" xlink:href="#b"/><radialGradient r="628.293" fy="825.149" fx="694.436" cy="825.149" cx="694.436" gradientTransform="matrix(1 0 0 .7088 0 240.288)" gradientUnits="userSpaceOnUse" id="D" xlink:href="#b"/><radialGradient r="628.293" fy="825.149" fx="694.436" cy="825.149" cx="694.436" gradientTransform="matrix(1 0 0 .7088 0 240.288)" gradientUnits="userSpaceOnUse" id="u" xlink:href="#b"/><radialGradient r="628.293" fy="825.149" fx="694.436" cy="825.149" cx="694.436" gradientTransform="matrix(1 0 0 .7088 0 240.288)" gradientUnits="userSpaceOnUse" id="G" xlink:href="#b"/><radialGradient r="628.293" fy="825.149" fx="694.436" cy="825.149" cx="694.436" gradientTransform="matrix(1 0 0 .7088 0 240.288)" gradientUnits="userSpaceOnUse" id="F" xlink:href="#b"/><radialGradient r="628.293" fy="825.149" fx="694.436" cy="825.149" cx="694.436" gradientTransform="matrix(1 0 0 .7088 0 240.288)" gradientUnits="userSpaceOnUse" id="J" xlink:href="#b"/><radialGradient r="628.293" fy="825.149" fx="694.436" cy="825.149" cx="694.436" gradientTransform="matrix(1 0 0 .7088 0 240.288)" gradientUnits="userSpaceOnUse" id="K" xlink:href="#b"/><radialGradient r="628.293" fy="825.149" fx="694.436" cy="825.149" cx="694.436" gradientTransform="matrix(1 0 0 .7088 0 240.288)" gradientUnits="userSpaceOnUse" id="L" xlink:href="#b"/><radialGradient r="628.293" fy="825.149" fx="694.436" cy="825.149" cx="694.436" gradientTransform="matrix(1 0 0 .7088 0 240.288)" gradientUnits="userSpaceOnUse" id="I" xlink:href="#b"/><radialGradient r="628.293" fy="825.149" fx="694.436" cy="825.149" cx="694.436" gradientTransform="matrix(1 0 0 .7088 0 240.288)" gradientUnits="userSpaceOnUse" id="M" xlink:href="#b"/><radialGradient r="628.293" fy="825.149" fx="694.436" cy="825.149" cx="694.436" gradientTransform="matrix(1 0 0 .7088 0 240.288)" gradientUnits="userSpaceOnUse" id="H" xlink:href="#b"/><radialGradient r="628.293" fy="825.149" fx="694.436" cy="825.149" cx="694.436" gradientTransform="matrix(1 0 0 .7088 0 240.288)" gradientUnits="userSpaceOnUse" id="E" xlink:href="#b"/><radialGradient r="628.293" fy="825.149" fx="694.436" cy="825.149" cx="694.436" gradientTransform="matrix(1 0 0 .7088 0 240.288)" gradientUnits="userSpaceOnUse" id="P" xlink:href="#b"/><radialGradient r="628.293" fy="825.149" fx="694.436" cy="825.149" cx="694.436" gradientTransform="matrix(1 0 0 .7088 0 240.288)" gradientUnits="userSpaceOnUse" id="O" xlink:href="#b"/><radialGradient r="628.293" fy="825.149" fx="694.436" cy="825.149" cx="694.436" gradientTransform="matrix(1 0 0 .7088 0 240.288)" gradientUnits="userSpaceOnUse" id="N" xlink:href="#b"/><radialGradient r="628.293" fy="825.149" fx="694.436" cy="825.149" cx="694.436" gradientTransform="matrix(1 0 0 .7088 0 240.288)" gradientUnits="userSpaceOnUse" id="R" xlink:href="#b"/><radialGradient r="628.293" fy="825.149" fx="694.436" cy="825.149" cx="694.436" gradientTransform="matrix(1 0 0 .7088 0 240.288)" gradientUnits="userSpaceOnUse" id="T" xlink:href="#b"/><radialGradient r="628.293" fy="825.149" fx="694.436" cy="825.149" cx="694.436" gradientTransform="matrix(1 0 0 .7088 0 240.288)" gradientUnits="userSpaceOnUse" id="U" xlink:href="#b"/><radialGradient r="628.293" fy="825.149" fx="694.436" cy="825.149" cx="694.436" gradientTransform="matrix(1 0 0 .7088 0 240.288)" gradientUnits="userSpaceOnUse" id="Q" xlink:href="#b"/></defs><g transform="translate(-107.419 -397.116)"><flowRoot style="line-height:100%;-inkscape-font-specification:'sans-serif, Normal';text-align:start" xml:space="preserve" font-style="normal" font-variant="normal" font-weight="400" font-stretch="normal" font-size="12.5" font-family="sans-serif" letter-spacing="0" word-spacing="0" writing-mode="lr-tb" text-anchor="start" opacity="1" fill="#000" fill-opacity="1" stroke="none" stroke-width="1" stroke-linecap="butt" stroke-linejoin="miter" stroke-opacity="1"><flowRegion><path d="M2005.714 555.523h77.143V938.38h-77.143z"/></flowRegion><flowPara/></flowRoot><flowRoot xml:space="preserve" style="line-height:100%;-inkscape-font-specification:'sans-serif, Normal';text-align:start" font-style="normal" font-variant="normal" font-weight="400" font-stretch="normal" font-size="8.489" font-family="sans-serif" letter-spacing="0" word-spacing="0" writing-mode="lr-tb" text-anchor="start" opacity="1" fill="#000" fill-opacity="1" stroke="none" stroke-width="1" stroke-linecap="butt" stroke-linejoin="miter" stroke-opacity="1"><flowRegion><path d="M1561.427 812.302h52.39v260.011h-52.39z"/></flowRegion><flowPara/></flowRoot><g style="line-height:125%;text-align:center" font-weight="400" font-size="17.5" font-family="Julius" letter-spacing="0" word-spacing="0" text-anchor="middle" fill="#e8e2f0"><path style="-inkscape-font-specification:Julius;text-align:center" d="M565.05 930.138l-.106 1.225h-6.842q-1.54 0-2.1-.438-.63-.49-.63-1.942v-7.508q0-1.4.56-1.872.577-.49 2.17-.49h6.667l.123 1.242q-.228-.087-1.645-.175-.473-.017-1.4-.07h-3.658q-.542 0-.682.158-.14.157-.14.84v8.26q0 .647.07.77.14.245.752.245h4.218q.822 0 1.487-.07.665-.07 1.155-.175zM576.25 929.018q0 1.295-.49 1.82-.49.525-1.837.525h-5.495q-1.347 0-1.855-.473-.49-.49-.49-1.872v-4.323q0-1.277.473-1.785.49-.525 1.872-.525h5.495q1.33 0 1.82.49.508.473.508 1.82v4.323zm-1.61.472v-5.25-.28q0-.402-.104-.525-.158-.175-.718-.175h-5.302q-.508 0-.665.158-.14.14-.14.822v5.25q0 .595.14.805.14.193.665.193h5.302q.438 0 .63-.193.193-.192.193-.805zM594.995 931.363h-1.96q.175-.648.175-1.925v-5.198-.227q0-.438-.105-.56-.157-.193-.735-.193h-4.375q-.49 0-.665.175-.175.175-.175.805v5.198q0 1.19.193 1.925h-1.978q.175-.648.175-1.925v-5.198-.227q0-.438-.105-.56-.157-.193-.735-.193h-4.375q-.49 0-.665.175-.157.158-.157.805v5.198q0 1.242.175 1.925h-1.978q.175-.753.175-1.925v-5.163q0-1.102-.175-1.89h1.803v.63q.175-.21.28-.315.332-.315.577-.315h5.163q.84 0 1.12.175.297.158.437.7.228-.577.455-.717.245-.158.98-.158h3.203q1.732 0 2.38.508.735.577.735 2.187v4.358q0 1.207.157 1.925zM606.67 929.018q0 1.33-.472 1.837-.455.508-1.802.508h-4.76q-.508 0-.84-.14-.333-.158-.42-.473l-.035 2.118q0 1.207.175 1.89h-1.978q.175-.753.175-1.89v-8.593q0-1.102-.175-1.89h1.61l.088.753q.157-.753 1.295-.753h4.742q1.365 0 1.873.473.525.472.525 1.837v4.323zm-1.61.472v-5.25-.28q0-.402-.104-.525-.158-.175-.718-.175h-5.075q-.49 0-.665.175-.157.158-.157.805v5.25q0 .595.14.805.14.193.682.193h5.075q.438 0 .63-.193.193-.192.193-.805zM618.573 931.363h-1.61l-.105-.665q-.105.262-.21.385-.245.28-.823.28h-5.18q-1.33 0-1.837-.473-.508-.472-.508-1.872v-4.743q0-1.102-.175-1.89h1.803v7.105q0 .595.14.805.14.193.682.193h5.215q.438 0 .63-.193.193-.192.193-.805v-5.215q0-1.207-.175-1.89h1.802v7.053q0 1.207.158 1.925zM627.858 930.295l-.157 1.068h-4.113q-1.312 0-1.802-.455-.56-.508-.56-1.89v-5.758h-1.418v-.875h1.418v-1.802l1.627-.298v2.1h4.515v.875h-4.515v6.23q0 .578.158.788.157.21.665.21h2.24q1.26 0 1.942-.193zM638.902 930.295l-.175 1.068h-7.647q-1.348 0-1.855-.473-.49-.49-.49-1.872v-4.323q0-1.277.472-1.785.49-.525 1.873-.525h5.495q1.33 0 1.82.49.507.473.507 1.82v2.73h-8.54v2.065q0 .595.14.805.14.193.665.193h5.81q1.295 0 1.925-.193zm-1.61-3.762v-2.293-.28q0-.402-.105-.525-.157-.175-.717-.175h-5.303q-.507 0-.665.158-.14.14-.14.822v2.293h6.93zM646.85 922.385l-.088 1.348-1.103-.105q-1.26-.123-1.312-.123h-1.365q-.49 0-.665.175-.158.158-.158.84v4.918q0 1.242.175 1.925h-1.977q.175-.753.175-1.925v-5.163q0-1.102-.175-1.89h1.627l.07.84q.245-.49.385-.612.263-.228.823-.228h3.587zM664.856 919.113l-.735 1.4-4.113 10.85h-2.38l-4.322-10.955q-.21-.648-.683-1.295h2.625q0 .245.035.56.035.297.228.717l3.832 9.993 3.693-9.783q.14-.385.227-.752.088-.385.088-.735h1.505zM667.596 921.265h-1.645v-1.295h1.645v1.295zm.158 10.098h-1.978q.175-.753.175-1.925v-5.163q0-1.102-.175-1.89h1.82v7.053q0 1.295.158 1.925zM678.963 929.823q0 .77-.508 1.155-.49.385-1.697.385h-7.228l-.122-1.068q.595.193 1.925.193h5.32q.472 0 .647-.175.193-.193.193-.823v-1.067q0-.613-.088-.753-.157-.245-.752-.245h-4.918q-1.33 0-1.837-.472-.508-.473-.508-1.873v-.385q0-1.312.473-1.802.49-.508 1.872-.508h7.053l.175 1.033q-.718-.158-1.943-.158h-5.197q-.508 0-.63.123-.193.192-.193.857v.613q0 .49.035.612.105.385.788.385h4.777q1.33 0 1.838.49.525.473.525 1.838v1.645zM682.464 921.265h-1.645v-1.295h1.645v1.295zm.158 10.098h-1.978q.175-.753.175-1.925v-5.163q0-1.102-.175-1.89h1.82v7.053q0 1.295.158 1.925zM694.478 929.018q0 1.295-.49 1.82-.49.525-1.837.525h-5.495q-1.348 0-1.855-.473-.49-.49-.49-1.872v-4.323q0-1.277.472-1.785.49-.525 1.873-.525h5.495q1.33 0 1.82.49.507.473.507 1.82v4.323zm-1.61.472v-5.25-.28q0-.402-.105-.525-.157-.175-.717-.175h-5.303q-.507 0-.665.158-.14.14-.14.822v5.25q0 .595.14.805.14.193.665.193h5.303q.437 0 .63-.193.192-.192.192-.805zM706.38 931.363h-1.96q.175-.648.175-1.925v-5.198-.227q0-.438-.105-.56-.157-.193-.717-.193h-5.215q-.49 0-.665.175-.158.158-.158.805v5.198q0 1.242.175 1.925h-1.977q.175-.753.175-1.925v-5.163q0-1.102-.175-1.89h1.872v.63q.175-.227.368-.455.192-.175.665-.175h5.022q1.348 0 1.855.473.508.472.508 1.837v4.743q0 1.207.157 1.925zM715.89 931.363h-1.4v-11.708h1.4v11.708zM739.257 919.113q-.035.14-.123 1.435-.017.402-.087 1.172v7.718q0 1.242.175 1.925h-2.328q.175-.753.175-1.925v-8.978l-4.935 10.903h-1.89l-4.952-10.903-.035 9.153.157 1.75h-1.4q.14-.298.175-1.348.035-1.05.053-2.047V922q0-2.012-.175-2.887h2.73l4.935 10.885 4.83-10.885h2.695zM750.977 931.363h-1.558l-.157-.56q-.193.35-.42.455-.21.105-.805.105h-4.848q-1.347 0-1.855-.473-.49-.49-.49-1.872v-1.365q0-1.295.473-1.803.49-.525 1.872-.525h5.18q.473 0 .648-.175.175-.175.175-.84v-.105q0-.577-.14-.752-.14-.193-.683-.193h-5.425q-1.207 0-1.942.158l.157-1.033h7.298q1.365 0 1.872.455.508.438.508 1.855v4.743q0 1.365.14 1.925zm-1.785-1.873v-3.29h-5.915q-.49 0-.613.105-.192.175-.192.893v2.292q0 .595.14.805.14.193.665.193h5.092q.455 0 .63-.175.193-.193.193-.823zM761.916 930.295l-.122 1.068h-6.808q-1.33 0-1.837-.473-.508-.472-.508-1.872v-4.323q0-1.312.473-1.802.49-.508 1.872-.508h6.668l.087 1.033q-.717-.158-1.942-.158h-4.708q-.49 0-.665.175-.157.158-.157.805v5.25q0 .595.14.805.14.193.682.193h4.9q1.295 0 1.925-.193zM773.407 931.363h-1.96q.175-.648.175-1.925v-5.198-.227q0-.438-.105-.56-.158-.193-.718-.193h-5.215q-.49 0-.665.175-.157.158-.157.805v5.198q0 1.242.175 1.925h-1.978q.175-.753.175-1.925v-8.418q0-1.085-.175-1.907h1.803v3.867q.175-.367.367-.472.21-.123.735-.123h5.023q1.347 0 1.855.473.507.472.507 1.837v4.743q0 1.207.158 1.925zM777.04 921.265h-1.645v-1.295h1.645v1.295zm.157 10.098h-1.977q.175-.753.175-1.925v-5.163q0-1.102-.175-1.89h1.82v7.053q0 1.295.157 1.925zM789.369 931.363h-1.96q.175-.648.175-1.925v-5.198-.227q0-.438-.105-.56-.158-.193-.718-.193h-5.215q-.49 0-.665.175-.157.158-.157.805v5.198q0 1.242.175 1.925h-1.978q.175-.753.175-1.925v-5.163q0-1.102-.175-1.89h1.873v.63q.175-.227.367-.455.193-.175.665-.175h5.023q1.347 0 1.855.473.507.472.507 1.837v4.743q0 1.207.158 1.925zM801.017 930.295l-.175 1.068h-7.648q-1.347 0-1.855-.473-.49-.49-.49-1.872v-4.323q0-1.277.473-1.785.49-.525 1.872-.525h5.495q1.33 0 1.82.49.508.473.508 1.82v2.73h-8.54v2.065q0 .595.14.805.14.193.665.193h5.81q1.295 0 1.925-.193zm-1.61-3.762v-2.293-.28q0-.402-.105-.525-.158-.175-.718-.175h-5.302q-.508 0-.665.158-.14.14-.14.822v2.293h6.93zM818.796 930.225l-.105 1.138h-9.975q.175-.753.175-1.925v-8.418q0-1.085-.175-1.907h2.327q-.175.682-.175 1.907v9.363h5.53q.595-.018 1.26-.035.665-.018 1.138-.123zM829.762 930.295l-.175 1.068h-7.648q-1.347 0-1.855-.473-.49-.49-.49-1.872v-4.323q0-1.277.473-1.785.49-.525 1.872-.525h5.495q1.33 0 1.82.49.508.473.508 1.82v2.73h-8.54v2.065q0 .595.14.805.14.193.665.193h5.81q1.295 0 1.925-.193zm-1.61-3.762v-2.293-.28q0-.402-.105-.525-.158-.175-.718-.175h-5.302q-.508 0-.665.158-.14.14-.14.822v2.293h6.93zM841.314 931.363h-1.558l-.157-.56q-.193.35-.42.455-.21.105-.805.105h-4.848q-1.347 0-1.855-.473-.49-.49-.49-1.872v-1.365q0-1.295.473-1.803.49-.525 1.872-.525h5.18q.473 0 .648-.175.175-.175.175-.84v-.105q0-.577-.14-.752-.14-.193-.683-.193h-5.425q-1.207 0-1.942.158l.157-1.033h7.298q1.365 0 1.872.455.508.438.508 1.855v4.743q0 1.365.14 1.925zm-1.785-1.873v-3.29h-5.915q-.49 0-.613.105-.192.175-.192.893v2.292q0 .595.14.805.14.193.665.193h5.092q.455 0 .63-.175.193-.193.193-.823zM849.296 922.385l-.088 1.348-1.102-.105q-1.26-.123-1.313-.123h-1.365q-.49 0-.665.175-.157.158-.157.84v4.918q0 1.242.175 1.925h-1.978q.175-.753.175-1.925v-5.163q0-1.102-.175-1.89h1.628l.07.84q.245-.49.385-.612.262-.228.822-.228h3.588zM860.462 931.363h-1.96q.175-.648.175-1.925v-5.198-.227q0-.438-.105-.56-.157-.193-.717-.193h-5.215q-.49 0-.665.175-.158.158-.158.805v5.198q0 1.242.175 1.925h-1.977q.175-.753.175-1.925v-5.163q0-1.102-.175-1.89h1.872v.63q.175-.227.368-.455.192-.175.665-.175h5.022q1.348 0 1.855.473.508.472.508 1.837v4.743q0 1.207.157 1.925zM864.095 921.265h-1.645v-1.295h1.645v1.295zm.158 10.098h-1.978q.175-.753.175-1.925v-5.163q0-1.102-.175-1.89h1.82v7.053q0 1.295.158 1.925zM876.424 931.363h-1.96q.175-.648.175-1.925v-5.198-.227q0-.438-.105-.56-.157-.193-.717-.193h-5.215q-.49 0-.665.175-.158.158-.158.805v5.198q0 1.242.175 1.925h-1.977q.175-.753.175-1.925v-5.163q0-1.102-.175-1.89h1.872v.63q.175-.227.368-.455.192-.175.665-.175h5.022q1.348 0 1.855.473.508.472.508 1.837v4.743q0 1.207.157 1.925zM888.037 922.385l-.087.648q-.053.507-.053 1.242v8.173q0 1.312-.507 1.802-.49.508-1.873.508h-7.21l-.105-1.033q.665.158 1.925.158h5.303q.49 0 .647-.193.175-.175.175-.787v-2.1q-.245.35-.367.42-.228.14-.805.14h-4.83q-1.348 0-1.855-.473-.49-.49-.49-1.872v-4.323q0-1.277.472-1.785.49-.525 1.873-.525h4.672q.56 0 .858.14.315.14.42.613l.157-.753h1.68zm-1.785 7.105v-5.25-.227q0-.42-.14-.578-.14-.175-.682-.175h-5.093q-.507 0-.665.158-.14.14-.14.822v5.25q0 .595.14.805.14.193.665.193h5.093q.455 0 .63-.175.192-.193.192-.823zM692.392 940.988q-.21.402-.28.542-.14.298-.175.438l-2.888 11.27h-2.31l-3.062-11.253-2.853 11.253h-2.362l-2.975-10.85-.508-1.4h2.485q-.017.157-.035.437-.017.263-.017.368 0 .35.052.56l2.555 9.8 2.888-11.165h2.415l2.975 11.165 2.362-9.328q.018-.087.123-1.312 0-.193.052-.525h1.558zM702.58 952.17l-.176 1.068h-7.647q-1.348 0-1.855-.473-.49-.49-.49-1.872v-4.323q0-1.277.472-1.785.49-.525 1.873-.525h5.495q1.33 0 1.82.49.507.473.507 1.82v2.73h-8.54v2.065q0 .595.14.805.14.193.665.193h5.81q1.295 0 1.925-.193zm-1.61-3.762v-2.293-.28q0-.402-.106-.525-.157-.175-.717-.175h-5.303q-.507 0-.665.158-.14.14-.14.822v2.293h6.93zM714.166 950.893q0 1.295-.49 1.82-.49.525-1.838.525h-4.812q-.718 0-.998-.158-.262-.175-.262-.63l-.123.788h-1.627q.035-.158.105-.823.087-.682.087-1.102v-8.418q0-1.085-.175-1.907h1.803v3.867q.122-.315.437-.455t.858-.14h4.707q1.33 0 1.82.49.508.473.508 1.82v4.323zm-1.61.472v-5.25-.28q0-.402-.105-.525-.158-.175-.718-.175h-5.075q-.49 0-.665.175-.157.158-.157.805v5.25q0 .595.14.805.14.193.682.193h5.075q.438 0 .63-.193.193-.192.193-.805zM734.465 953.238h-2.59v-.228q0-.21-.052-.35-.053-.157-.14-.297l-1.348-2.87h-6.597l-1.015 2.065q-.333.682-.438.997-.105.315-.105.683h-1.627q.507-.56.892-1.313l4.918-10.167-.648-.77h2.485l5.67 11.375q.07.157.21.367.088.14.385.508zm-4.585-4.743l-2.87-5.81-2.835 5.81h5.705zM745.099 950.893q0 1.33-.473 1.837-.455.508-1.802.508h-4.76q-.508 0-.84-.14-.333-.158-.42-.473l-.035 2.118q0 1.207.175 1.89h-1.978q.175-.753.175-1.89v-8.593q0-1.102-.175-1.89h1.61l.088.753q.157-.753 1.295-.753h4.742q1.365 0 1.873.473.525.472.525 1.837v4.323zm-1.61.472v-5.25-.28q0-.402-.105-.525-.158-.175-.718-.175h-5.075q-.49 0-.665.175-.157.158-.157.805v5.25q0 .595.14.805.14.193.682.193h5.075q.438 0 .63-.193.193-.192.193-.805zM756.686 950.893q0 1.33-.473 1.837-.455.508-1.802.508h-4.76q-.508 0-.84-.14-.333-.158-.42-.473l-.035 2.118q0 1.207.175 1.89h-1.978q.175-.753.175-1.89v-8.593q0-1.102-.175-1.89h1.61l.088.753q.157-.753 1.295-.753h4.742q1.365 0 1.873.473.525.472.525 1.837v4.323zm-1.61.472v-5.25-.28q0-.402-.105-.525-.158-.175-.718-.175h-5.075q-.49 0-.665.175-.157.158-.157.805v5.25q0 .595.14.805.14.193.682.193h5.075q.438 0 .63-.193.193-.192.193-.805zM767.625 951.698q0 .77-.508 1.155-.49.385-1.697.385h-7.228l-.122-1.068q.595.193 1.925.193h5.32q.472 0 .647-.175.193-.193.193-.823v-1.067q0-.613-.088-.753-.157-.245-.752-.245h-4.918q-1.33 0-1.837-.472-.508-.473-.508-1.873v-.385q0-1.312.473-1.802.49-.508 1.872-.508h7.053l.175 1.033q-.718-.158-1.943-.158h-5.197q-.508 0-.63.123-.193.192-.193.857v.613q0 .49.035.612.105.385.788.385h4.777q1.33 0 1.838.49.525.473.525 1.838v1.645z"/></g><g><path style="line-height:normal;text-indent:0;text-align:start;text-decoration-line:none;text-decoration-style:solid;text-decoration-color:#000;text-transform:none;block-progression:tb;isolation:auto;mix-blend-mode:normal" d="M758.63 663.12a12.115 12.115 0 0 0-7.798 2.611c-5.237 4.153-6.126 11.882-1.974 17.12a12.01 12.01 0 0 0 4.243 3.366l-.172 12.086-70.562 62.805c-3.44-3.879-6.196-8.038-8.074-12.329l-28.077 24.138c54.731 98.749 132.481 39.951 149.232 5.775l-16.412-7.858c-30.621 21.841-66.385 14.946-88.006-1.7l73.58-65.49.255-18.037c.38-.238.75-.495 1.108-.78 5.238-4.152 6.134-11.881 1.982-17.119-2.336-2.946-5.806-4.515-9.326-4.587zm-.563 7.67c1.427-.116 2.872.47 3.85 1.705 1.566 1.974 1.244 4.73-.73 6.295-1.974 1.566-4.726 1.248-6.292-.726-1.565-1.974-1.247-4.727.727-6.292a4.52 4.52 0 0 1 2.445-.981zm23.175 11.813a5.877 5.877 0 0 0-5.853 5.895l-.221 20.512-46.245 42.724a5.877 5.877 0 1 0 7.973 8.633l48.106-44.447a5.877 5.877 0 0 0 1.888-4.251l.25-23.044a5.877 5.877 0 0 0-5.898-6.022z" color="#000" font-weight="400" font-family="sans-serif" white-space="normal" overflow="visible" fill="#e8e2f0" fill-rule="evenodd"/><path style="line-height:normal;text-indent:0;text-align:start;text-decoration-line:none;text-decoration-style:solid;text-decoration-color:#000;text-transform:none;block-progression:tb;isolation:auto;mix-blend-mode:normal" d="M631.64 671.412l20.875 35.796c47.318 4.503 67.175 19.015 70.625 21.202l-26.174-1.086-10.213 10.284c2.479 10.506 12.19 21.282 25.804 27.597l-13.831 12.254-59.769-15.062a12.021 12.021 0 0 0-2.363-5.124c-4.152-5.237-11.878-6.13-17.115-1.977-5.237 4.152-6.134 11.878-1.981 17.115 4.153 5.237 11.885 6.13 17.123 1.977.3-.238.581-.491.853-.752l63.387 15.976a5.877 5.877 0 0 0 5.333-1.3l21.25-18.822c2.206.464 4.472.809 6.786 1.026l1.936 23.482a10.825 10.825 0 0 0-4.442 8.91 10.825 10.825 0 0 0 11 10.643 10.825 10.825 0 0 0 10.647-11 10.825 10.825 0 0 0-5.464-9.216l-1.888-22.868c11.106-1.123 22.904-5.36 34.53-13.98l23.183 12.243 3.618-5.959c-99.053-89.456-57.346-66.039-173.71-91.359zm-4.93 88.94c1.427-.115 2.869.474 3.847 1.707 1.565 1.975 1.248 4.727-.726 6.292-1.975 1.566-4.727 1.248-6.292-.726-1.566-1.975-1.248-4.727.726-6.292a4.518 4.518 0 0 1 2.446-.981z" color="#000" font-weight="400" font-family="sans-serif" white-space="normal" overflow="visible" fill="#211a2a" fill-rule="evenodd"/><path d="M743.383 739.52a13.794 13.794 0 0 1-1.053 16.172 13.794 13.794 0 0 1-15.702 4.01 13.794 13.794 0 0 1-8.676-13.689 13.794 13.794 0 0 1 10.326-12.49" fill="#f6f3ff"/><g style="line-height:100%;-inkscape-font-specification:'Droid Sans';text-align:start" font-weight="400" font-size="32.298" font-family="Droid Sans" letter-spacing="6.712" word-spacing="0" fill="#211a2a"><path d="M651.513 886.737q0 8.928-14.434 8.928h-29.86q-2.529 0-2.529-2.778 0-2.629 2.53-2.629h30.702q6.845 0 6.845-5.357v-5.208q0-4.464-8.63-4.464h-18.352q-15.178 0-15.178-8.035v-7.44q0-9.176 13.045-9.176h1.14q2.53 0 2.53 2.777 0 2.63-2.53 2.63h-2.182q-5.307 0-5.307 4.215v6.35q0 3.372 7.34 3.372h18.65q16.22 0 16.22 9.126v7.689zM708.454 870.666q2.332 0 2.332 2.728 0 2.629-2.332 2.629H674.38q-2.976 0-2.976-2.629 0-2.728 2.976-2.728h34.075zm-39.58 13.839q0 5.753 10.96 5.753h28.62q2.43 0 2.43 2.728 0 2.679-2.43 2.679h-28.867q-17.51 0-17.51-10.863v-23.064q0-11.16 18.105-11.16h7.887q2.33 0 2.33 2.777 0 2.63-2.33 2.63h-5.357q-13.839 0-13.839 5.753v22.767zM766.983 870.666q2.331 0 2.331 2.728 0 2.629-2.33 2.629h-34.076q-2.977 0-2.977-2.629 0-2.728 2.977-2.728h34.075zm-39.581 13.839q0 5.753 10.962 5.753h28.62q2.43 0 2.43 2.728 0 2.679-2.43 2.679h-28.868q-17.51 0-17.51-10.863v-23.064q0-11.16 18.105-11.16h7.886q2.332 0 2.332 2.777 0 2.63-2.332 2.63h-5.357q-13.838 0-13.838 5.753v22.767zM819.857 861.787q0-5.803-10.961-5.803H775.96q-2.827 0-2.827-2.58 0-2.826 2.827-2.826h31.893q18.65 0 18.65 11.606v4.861q0 10.714-17.162 10.714H792.18l29.165 12.5q.794.346 1.141.991t.347 1.34q0 1.19-.843 2.281-.793 1.042-2.033 1.042-.546 0-1.141-.298l-37.25-17.162q-.844-.347-1.29-1.09-.446-.745-.446-1.588 0-1.24.942-2.282.942-1.041 2.679-1.041h26.536q9.87 0 9.87-4.812v-5.853z"/></g><g transform="matrix(.95497 0 0 .95497 44.254 5.073)" fill="url(#c)"><path d="M1108.19 524.452a13.047 13.047 0 0 0-8.178 3.388c-3.944 3.584-5.185 9.026-3.623 13.784l-53.207 50.36-61.366.032c-1.582 0-3.1.63-4.218 1.748L894.45 669.31c-5.722 5.63 2.815 14.168 8.445 8.445l81.399-73.796 61.2-.034a5.972 5.972 0 0 0 4.01-1.55l55.405-52.356c4.29 1.338 9.153.447 12.717-2.791 5.35-4.862 5.748-13.151.887-18.502-3.056-2.639-6.975-4.378-10.325-4.273zm31.642 11.19a5.972 5.972 0 0 0-4.105 1.808l-77.872 77.869-61.197.033a5.972 5.972 0 0 0-4.01 1.547l-79.869 72.443a13.233 13.233 0 0 0-5.3-.853 13.114 13.114 0 0 0-8.227 3.398c-5.386 4.886-5.793 13.221-.908 18.608 4.885 5.386 13.221 5.793 18.607.908 3.793-3.44 5.106-8.588 3.852-13.215l78.164-70.895 61.367-.033a5.97 5.97 0 0 0 4.219-1.75l79.619-79.617c3.907-3.797 1.106-10.414-4.34-10.252z" style="line-height:normal;text-indent:0;text-align:start;text-decoration-line:none;text-decoration-style:solid;text-decoration-color:#000;text-transform:none;block-progression:tb;isolation:auto;mix-blend-mode:normal" color="#000" font-weight="400" font-family="sans-serif" white-space="normal" overflow="visible" fill="#5d317b" fill-rule="evenodd"/><g transform="translate(43.958 166.819)" fill="url(#Q)"><g fill="#5d317b" color="#000" font-weight="400" font-family="sans-serif" white-space="normal"><path style="line-height:normal;text-indent:0;text-align:start;text-decoration-line:none;text-decoration-style:solid;text-decoration-color:#000;text-transform:none;block-progression:tb;isolation:auto;mix-blend-mode:normal" d="M720.09 243.71a5.972 5.972 0 0 0-5.882 6.057l-.018 110.21-22.535 25.57a5.972 5.972 0 0 0-1.492 3.939l-.102 72.926c-4.344 2.184-7.337 6.667-7.344 11.86-.01 7.34 5.94 13.307 13.282 13.317 7.342.01 13.307-5.939 13.318-13.28.007-5.193-2.973-9.686-7.312-11.882l.097-70.672 22.54-25.576a5.972 5.972 0 0 0 1.49-3.947l.02-112.465a5.972 5.972 0 0 0-6.061-6.056zm-132.638 7.534a5.972 5.972 0 0 0-6.06 6.056l.019 105.873a5.972 5.972 0 0 0 1.49 3.948l22.54 25.576.112 82.303a5.972 5.972 0 1 0 11.944-.016l-.117-84.557a5.972 5.972 0 0 0-1.49-3.94l-22.538-25.57-.017-103.619a5.972 5.972 0 0 0-5.883-6.054zm202.453 17.226a5.972 5.972 0 0 0-4.025 1.772l-46.086 46.088a5.972 5.972 0 0 0-1.75 4.22v49.432l-22.438 23.895a5.972 5.972 0 0 0-1.617 4.097l.115 65.39a5.972 5.972 0 1 0 11.944-.02l-.114-63.02 22.434-23.887a5.972 5.972 0 0 0 1.619-4.09v-49.322l44.34-44.338a5.972 5.972 0 0 0-4.422-10.217zm27.883.828a13.1 13.1 0 0 0-9.303 3.823c-3.618 3.598-4.692 8.783-3.236 13.334l-36.123 35.93a5.972 5.972 0 0 0-.387 8.046l24.447 29.48a5.972 5.972 0 0 0 4.574 2.16l37.635.145a5.972 5.972 0 1 0 .047-11.943l-34.844-.133-19.183-23.135 32.256-32.083c4.542 1.48 9.731.434 13.35-3.165 5.143-5.116 5.166-13.442.05-18.585a13.102 13.102 0 0 0-9.283-3.874zm-281.994 5.94c-7.255 0-13.144 5.886-13.145 13.14 0 5.104 2.918 9.519 7.17 11.696l-.006 50.662-51.986-.195-24.694-27.08a5.972 5.972 0 1 0-8.826 8.046l26.461 29.02a5.972 5.972 0 0 0 4.39 1.947l60.602.227a5.972 5.972 0 0 0 5.994-5.973l.008-56.652c4.253-2.177 7.172-6.593 7.172-11.696 0-7.254-5.886-13.141-13.14-13.142zm27.543 15.432a5.972 5.972 0 0 0-5.979 6.136l.197 24.71v51.773a5.972 5.972 0 0 0 1.62 4.09l22.433 23.886-.111 61.862c-4.183 2.127-7.084 6.472-7.084 11.447 0 7.041 5.8 12.838 12.842 12.838 7.041 0 12.838-5.797 12.838-12.838 0-4.805-2.701-9.029-6.653-11.229l.115-64.43a5.972 5.972 0 0 0-1.617-4.097l-22.44-23.895v-49.43a5.972 5.972 0 0 0 0-.048l-.198-24.734a5.972 5.972 0 0 0-5.963-6.041zm364.539 22.707a13.099 13.099 0 0 0-9.168 4.134c-3.494 3.719-4.391 8.936-2.783 13.434l-62.872 66.922-59.345.096c-2.184-4.25-6.604-7.163-11.707-7.155-7.255.012-13.133 5.91-13.121 13.164.01 7.255 5.909 13.133 13.164 13.121 5.102-.008 9.511-2.933 11.681-7.19l61.926-.099a5.972 5.972 0 0 0 4.342-1.882l64.637-68.8c4.59 1.326 9.74.108 13.234-3.61 4.968-5.288 4.71-13.613-.578-18.58a13.104 13.104 0 0 0-9.41-3.555zm-548.21.941a13.104 13.104 0 0 0-9.41 3.555c-5.287 4.967-5.545 13.292-.578 18.58 3.495 3.72 8.646 4.937 13.237 3.611l64.635 68.799a5.972 5.972 0 0 0 4.341 1.883l61.926.1c2.17 4.255 6.581 7.18 11.684 7.189 7.254.011 13.15-5.867 13.162-13.121.011-7.255-5.867-13.153-13.121-13.164-5.104-.008-9.524 2.904-11.707 7.154l-59.346-.096-62.871-66.922c1.608-4.498.712-9.715-2.781-13.433a13.103 13.103 0 0 0-9.17-4.135zm511.659 9.594a5.972 5.972 0 0 0-4.674 2l-44.162 47.842-74.088.521a5.972 5.972 0 0 0-4.312 1.883l-24.057 25.617a5.972 5.972 0 0 0-1.62 4.1l.12 57.322c-3.662 2.273-6.131 6.32-6.13 10.906 0 7.042 5.797 12.838 12.839 12.838 7.041 0 12.838-5.796 12.838-12.838 0-5.181-3.144-9.68-7.608-11.701l-.11-54.18 20.68-22.023 74.122-.522a5.972 5.972 0 0 0 4.346-1.92l45.918-49.746a5.972 5.972 0 0 0-4.102-10.1zm-475.09.947a5.972 5.972 0 0 0-4.119 10.094l45.918 49.746a5.972 5.972 0 0 0 4.346 1.92l74.12.521 20.682 22.024-.113 55.156a5.972 5.972 0 1 0 11.943.025l.118-57.529a5.972 5.972 0 0 0-1.62-4.1L543.454 377.1a5.972 5.972 0 0 0-4.31-1.883l-74.09-.521-44.163-47.842a5.972 5.972 0 0 0-4.656-1.994zm329.006 144.764c2.523 0 4.478 1.957 4.478 4.48 0 2.524-1.955 4.479-4.478 4.479-2.523 0-4.48-1.955-4.48-4.479 0-2.523 1.957-4.48 4.48-4.48zm-159.018.595a5.972 5.972 0 0 0 2.221.047c1.918.509 3.29 2.203 3.29 4.309 0 2.523-1.956 4.478-4.48 4.478-2.523 0-4.48-1.955-4.48-4.478 0-2.166 1.445-3.904 3.45-4.356zM721.483 867.453c-7.041 0-12.838 5.799-12.838 12.84 0 4.805 2.701 9.027 6.653 11.227l-.116 64.431a5.971 5.971 0 0 0 1.618 4.098l22.439 23.893V1033.423l.2 24.734a5.972 5.972 0 1 0 11.94-.098l-.197-24.71v-51.773c0-1.519-.579-2.98-1.619-4.087l-22.435-23.887.113-61.863c4.182-2.128 7.082-6.47 7.082-11.446 0-7.041-5.798-12.84-12.84-12.84zm-24.19 6.366a5.972 5.972 0 0 0-6.052 6.062l.117 84.557a5.973 5.973 0 0 0 1.49 3.94l22.536 25.57.02 103.62a5.972 5.972 0 1 0 11.94-.001l-.017-105.875a5.972 5.972 0 0 0-1.492-3.948l-22.537-25.574-.114-82.304a5.972 5.972 0 0 0-5.89-6.047zm24.19 1.996c2.524 0 4.48 1.955 4.48 4.478 0 2.168-1.43 3.983-3.452 4.358a5.208 5.208 0 0 1-2.22-.05c-1.924-.476-3.286-2.202-3.286-4.308 0-2.523 1.955-4.478 4.478-4.478zm24.317 8.664a5.972 5.972 0 0 0-6.075 6.043l-.117 57.527a5.971 5.971 0 0 0 1.617 4.102l24.059 25.615a5.972 5.972 0 0 0 4.307 1.883l67.334.52 53.353 55.693c5.503 5.946 14.329-2.51 8.623-8.262l-55.098-57.514a5.972 5.972 0 0 0-4.265-1.84l-67.299-.52-20.684-22.023.114-55.158a5.972 5.972 0 0 0-5.87-6.066zm24.888 107.69a5.972 5.972 0 0 0-6.058 5.968l-.006 56.713c-4.263 2.164-7.193 6.58-7.194 11.685 0 7.237 5.873 13.11 13.11 13.112 7.237 0 13.11-5.873 13.111-13.11 0-5.064-2.88-9.452-7.086-11.636l.006-50.75c20.039.229 35.03.142 51.994.183l24.686 27.073c5.362 5.952 14.26-2.163 8.824-8.05l-26.461-29.017a5.972 5.972 0 0 0-4.389-1.95c-20.217-.072-35.743.144-60.537-.222zM580.385 865.5c-7.041 0-12.84 5.797-12.84 12.838 0 4.975 2.902 9.32 7.085 11.447l.11 61.864-22.435 23.886a5.972 5.972 0 0 0-1.619 4.088v51.774l-.197 24.709a5.972 5.972 0 1 0 11.941.096l.2-24.735V981.99l22.439-23.895a5.972 5.972 0 0 0 1.617-4.096l-.115-64.431c3.952-2.2 6.652-6.424 6.652-11.229 0-7.041-5.796-12.838-12.838-12.838zm24.19 6.366a5.972 5.972 0 0 0-5.889 6.046l-.115 82.303-22.537 25.576a5.972 5.972 0 0 0-1.492 3.948l-.018 105.875a5.973 5.973 0 1 0 11.941 0l.02-103.62 22.535-25.57a5.972 5.972 0 0 0 1.49-3.94l.118-84.556a5.972 5.972 0 0 0-6.053-6.062zm-24.19 1.994c2.524 0 4.479 1.955 4.479 4.478 0 2.524-1.955 4.48-4.479 4.48-2.523 0-4.48-1.956-4.48-4.48 0-2.523 1.957-4.478 4.48-4.478zm-24.316 8.666a5.972 5.972 0 0 0-5.87 6.066l.114 55.158-20.681 22.024-67.301.52a5.972 5.972 0 0 0-4.266 1.84l-55.098 57.513a5.972 5.972 0 1 0 8.623 8.26l53.354-55.692 67.334-.52a5.972 5.972 0 0 0 4.307-1.882l24.058-25.615a5.972 5.972 0 0 0 1.617-4.102l-.117-57.527a5.972 5.972 0 0 0-6.074-6.043zM531.18 990.213c-24.794.366-40.32.152-60.537.225a5.972 5.972 0 0 0-4.388 1.95l-26.461 29.017c-5.548 5.89 3.468 14.112 8.824 8.047l24.685-27.07c16.965-.042 31.956.044 51.995-.184l.006 50.687c-4.267 2.167-7.2 6.589-7.2 11.7.001 7.243 5.881 13.12 13.125 13.12s13.122-5.88 13.121-13.125c0-5.071-2.888-9.464-7.103-11.648l-.006-56.748a5.972 5.972 0 0 0-6.06-5.97zM1119.376 522.801a6.251 6.251 0 0 0-4.348 1.766l-80.2 75.71-114.183-.109c-2.294-4.586-7.022-7.745-12.496-7.752-7.723-.007-13.996 6.254-14.004 13.977-.007 7.723 6.254 13.997 13.977 14.006 5.474.005 10.207-3.147 12.51-7.729l116.673.11a6.251 6.251 0 0 0 4.297-1.704l82.006-77.418a6.251 6.251 0 0 0-4.232-10.857zm-46.096 78.842a6.251 6.251 0 0 0-4.28 1.695l-25.007 23.485-148.725-.112c-2.3-4.626-7.06-7.816-12.576-7.822-7.763-.006-14.068 6.29-14.074 14.053-.006 7.763 6.29 14.065 14.053 14.074 5.514.004 10.28-3.18 12.588-7.803l151.203.111a6.251 6.251 0 0 0 4.283-1.693l25.01-23.486h174.847a6.251 6.251 0 1 0 0-12.502H1073.28zm9.252 27.986a6.251 6.251 0 0 0-4.28 1.694l-25.005 23.488-133.803-.112c-2.3-4.626-7.06-7.817-12.576-7.824-7.763-.006-14.07 6.29-14.076 14.053-.006 7.763 6.29 14.065 14.052 14.074 5.516.005 10.28-3.18 12.588-7.803l136.282.114a6.251 6.251 0 0 0 4.285-1.696l25.01-23.488h187.388a6.251 6.251 0 1 0 0-12.5h-189.865zm-197.398 42.684c-7.371 0-13.44 6.07-13.44 13.441 0 7.37 6.069 13.438 13.44 13.438 5.017 0 9.429-2.815 11.736-6.936a6.251 6.251 0 0 0 .506.016l155.87-.12 25.007 23.485a6.251 6.251 0 0 0 4.279 1.695h189.865a6.251 6.251 0 1 0 0-12.502H1085.01l-25.01-23.488a6.251 6.251 0 0 0-4.285-1.693l-158.348.123a6.251 6.251 0 0 0-.225.01c-2.217-4.406-6.78-7.467-12.007-7.467v-.002zm0 8.752c2.64 0 4.689 2.048 4.689 4.69 0 2.64-2.048 4.687-4.69 4.687-2.64 0-4.689-2.046-4.689-4.688 0-2.641 2.048-4.69 4.69-4.69zm-23.883 15.744c-7.763.005-14.06 6.309-14.055 14.072.005 7.763 6.311 14.064 14.074 14.055 5.515-.004 10.275-3.194 12.576-7.82l169.903-.114 23.056 21.655.631 80.189c-4.248 2.269-7.17 6.75-7.17 11.861 0 7.37 6.07 13.442 13.44 13.442 7.37 0 13.44-6.071 13.44-13.442 0-5.128-2.94-9.618-7.21-11.88l-.65-82.944a6.251 6.251 0 0 0-1.973-4.508l-26.812-25.181a6.251 6.251 0 0 0-4.283-1.696l-172.377.118c-2.307-4.627-7.074-7.814-12.59-7.807zm212.455 129.21c2.641 0 4.69 2.047 4.69 4.688 0 2.642-2.049 4.69-4.69 4.69-2.642 0-4.69-2.048-4.69-4.69 0-2.641 2.048-4.687 4.69-4.687zM227.249 471.174c-7.37 0-13.44 6.069-13.44 13.44 0 5.127 2.94 9.618 7.21 11.88l.652 82.944a6.251 6.251 0 0 0 1.97 4.508l26.815 25.183a6.251 6.251 0 0 0 4.283 1.693l170.15-.115c2.29 4.676 7.08 7.905 12.633 7.899 7.764-.005 14.06-6.311 14.055-14.075-.005-7.763-6.31-14.063-14.072-14.054-5.48.004-10.218 3.152-12.536 7.73l-66.464.045-101.297.069-23.057-21.657-.63-80.19c4.246-2.268 7.17-6.75 7.17-11.86 0-7.371-6.072-13.44-13.442-13.44zm0 8.75c2.641 0 4.69 2.048 4.69 4.69 0 2.64-2.049 4.689-4.69 4.689-2.642 0-4.688-2.048-4.688-4.69 0-2.64 2.046-4.689 4.688-4.689zM28.557 597.99a6.251 6.251 0 1 0 0 12.5h187.391l25.01 23.489a6.251 6.251 0 0 0 4.285 1.693l158.346-.121a6.251 6.251 0 0 0 .228-.008c2.218 4.405 6.778 7.465 12.006 7.465 7.37 0 13.44-6.069 13.44-13.44 0-7.37-6.07-13.439-13.44-13.439-5.018 0-9.43 2.816-11.736 6.938a6.251 6.251 0 0 0-.508-.018l-155.87.121-25.007-23.486a6.251 6.251 0 0 0-4.28-1.694H28.558zm387.266 26.891c2.641 0 4.69 2.046 4.69 4.688 0 2.641-2.049 4.689-4.69 4.689-2.641 0-4.691-2.048-4.691-4.69 0-2.64 2.05-4.687 4.691-4.687zm-21.711 15.441c-5.514-.005-10.278 3.179-12.586 7.801l-136.283-.113a6.251 6.251 0 0 0-4.285 1.693l-25.01 23.489H28.558a6.251 6.251 0 1 0 0 12.502h189.865a6.251 6.251 0 0 0 4.279-1.696l25.008-23.486 133.804.111c2.3 4.625 7.061 7.814 12.575 7.82 7.761.007 14.065-6.286 14.072-14.048.006-7.762-6.287-14.063-14.049-14.073zm24.172 25.524c-5.515-.004-10.279 3.178-12.586 7.8l-151.203-.115a6.251 6.251 0 0 0-4.285 1.696l-25.008 23.488H50.354a6.251 6.251 0 1 0 0 12.502h177.32a6.251 6.251 0 0 0 4.28-1.695l25.008-23.487 148.728.112c2.3 4.624 7.06 7.814 12.574 7.82 7.762.006 14.065-6.289 14.07-14.05.007-7.762-6.288-14.062-14.05-14.071zm-13.611 29.73c-5.08 0-9.542 2.884-11.825 7.088l-129.197-.123a6.251 6.251 0 0 0-4.162 1.582l-30.951 27.543H119.173a6.251 6.251 0 1 0 0 12.5h111.744a6.251 6.251 0 0 0 4.154-1.58l30.95-27.54 126.73.118c2.249 4.313 6.762 7.291 11.922 7.291 7.37 0 13.437-6.068 13.437-13.44 0-7.37-6.067-13.439-13.437-13.439zm0 8.752c2.641 0 4.687 2.046 4.687 4.688 0 2.641-2.046 4.69-4.687 4.69-2.642 0-4.69-2.049-4.69-4.69 0-2.642 2.048-4.688 4.69-4.688z" overflow="visible" fill-rule="evenodd"/><path d="M863.565 847.446c-7.758.016-14.042 6.327-14.025 14.085.016 7.759 6.325 14.042 14.084 14.026 5.55-.012 10.331-3.252 12.605-7.932l43.836-.092 25.004 23.483a6.251 6.251 0 0 0 4.28 1.695h51.628l46.412 46.412a6.251 6.251 0 0 0 4.42 1.83h74.81a6.251 6.251 0 1 0 0-12.5h-72.22l-46.412-46.412a6.251 6.251 0 0 0-4.42-1.832h-51.742l-25.01-23.488a6.251 6.251 0 0 0-4.293-1.693l-46.416.097c-2.331-4.562-7.07-7.69-12.54-7.68zm-20.728 26.857c-7.371 0-13.44 6.069-13.44 13.44 0 7.37 6.069 13.439 13.44 13.439 5.424 0 10.133-3.293 12.248-7.967l37.984-.111 46.08 49.949.106 30.445a6.251 6.251 0 0 0 1.808 4.377l25.684 25.938a6.251 6.251 0 1 0 8.883-8.795l-23.883-24.121-.104-30.319a6.251 6.251 0 0 0-1.658-4.214l-49.59-53.756a6.251 6.251 0 0 0-4.613-2.014l-41.53.125c-2.378-3.833-6.614-6.416-11.415-6.416zm0 8.75c2.641 0 4.69 2.048 4.69 4.69 0 2.64-2.049 4.687-4.69 4.687-2.642 0-4.69-2.046-4.69-4.688 0-2.641 2.048-4.689 4.69-4.689z" style="line-height:normal;text-indent:0;text-align:start;text-decoration-line:none;text-decoration-style:solid;text-decoration-color:#000;text-transform:none;block-progression:tb;isolation:auto;mix-blend-mode:normal" overflow="visible"/><path d="M448.542 823.803c-3.45 0-6.898 1.302-9.504 3.908-3.818 3.818-4.826 9.44-3.051 14.225l-26.666 23.982-68.246.18-21.527-19.758a6.251 6.251 0 0 0-4.223-1.646l-112.06-.055a6.251 6.251 0 1 0-.01 12.502l109.628.053 21.537 19.765a6.251 6.251 0 0 0 4.243 1.647l73.078-.194a6.251 6.251 0 0 0 4.164-1.601l29.433-26.475a6.251 6.251 0 0 0 .088-.084c4.394 1.031 9.22-.138 12.617-3.535h.002c5.212-5.212 5.213-13.794 0-19.006-2.605-2.606-6.055-3.908-9.503-3.908zm.002 8.695c1.19 0 2.382.467 3.316 1.4 1.868 1.868 1.867 4.764 0 6.632h-.002c-1.868 1.867-4.763 1.867-6.63 0-1.868-1.868-1.87-4.764 0-6.631.933-.934 2.125-1.4 3.316-1.4zm8.535 24.047a14.014 14.014 0 0 0-10.074 3.78c-4.028 3.765-5.331 9.347-3.856 14.298l-34.722 32.463-34.311.102a6.251 6.251 0 0 0-4.352 1.779l-36.515 35.688H267.57a6.251 6.251 0 0 0-4.455 1.867l-52.9 53.77a6.251 6.251 0 1 0 8.912 8.767l51.062-51.904h65.606a6.251 6.251 0 0 0 4.369-1.78l36.523-35.695 34.23-.1a6.251 6.251 0 0 0 4.25-1.685l36.518-34.143c4.841 1.805 10.496.881 14.524-2.885 5.67-5.3 5.969-14.205.668-19.875a14.016 14.016 0 0 0-9.8-4.447zm-112.25 28.707a14.017 14.017 0 0 0-9.955 4.086c-3.911 3.887-5.043 9.503-3.418 14.406l-13.334 13.252-75.533-.56a6.251 6.251 0 0 0-4.342 1.709l-57.88 54.754a6.251 6.251 0 1 0 8.59 9.082l56.054-53.026 75.625.56a6.251 6.251 0 0 0 4.45-1.816l15.182-15.085c4.894 1.655 10.517.558 14.428-3.329 5.506-5.47 5.534-14.38.063-19.886a14.016 14.016 0 0 0-9.93-4.147z" style="line-height:normal;text-indent:0;text-align:start;text-decoration-line:none;text-decoration-style:solid;text-decoration-color:#000;text-transform:none;block-progression:tb;isolation:auto;mix-blend-mode:normal" overflow="visible" fill-rule="evenodd"/></g></g></g></g></g></svg>